<?xml version="1.0" encoding="UTF-8" standalone="no"?>
<svg
   xmlns:dc="http://purl.org/dc/elements/1.1/"
   xmlns:cc="http://creativecommons.org/ns#"
   xmlns:rdf="http://www.w3.org/1999/02/22-rdf-syntax-ns#"
   xmlns:svg="http://www.w3.org/2000/svg"
   xmlns="http://www.w3.org/2000/svg"
   viewBox="0 0 666.66669 666.66669"
   height="666.66669"
   width="666.66669"
   xml:space="preserve"
   id="svg2"
   version="1.1"><metadata
     id="metadata8"><rdf:RDF><cc:Work
         rdf:about=""><dc:format>image/svg+xml</dc:format><dc:type
           rdf:resource="http://purl.org/dc/dcmitype/StillImage" /></cc:Work></rdf:RDF></metadata><defs
     id="defs6"><clipPath
       id="clipPath20"
       clipPathUnits="userSpaceOnUse"><path
         id="path18"
         d="M 0,500 H 500 V 0 H 0 Z" /></clipPath><clipPath
       id="clipPath32"
       clipPathUnits="userSpaceOnUse"><path
         id="path30"
         d="m 162.63,363.41 c -2.393,-49.597 -39.14,-61.675 -71.74,-80.829 v 0 C 19.219,240.472 -6.934,131.593 80.635,96.358 v 0 l 196.759,-16.055 162.792,25.152 c 78.512,75.253 4.554,148.355 -38.757,183.269 v 0 c -38.896,31.357 -26.381,79.364 -77.258,118.534 v 0 c -25.462,19.602 -56.99,30.908 -85.432,30.906 v 0 C 198.924,438.161 165.164,415.997 162.63,363.41" /></clipPath><clipPath
       id="clipPath60"
       clipPathUnits="userSpaceOnUse"><path
         id="path58"
         d="M 0,500 H 500 V 0 H 0 Z" /></clipPath></defs><g
     transform="matrix(1.3333333,0,0,-1.3333333,0,666.66667)"
     id="g10"><path
       id="path12"
       style="fill:#ffffff;fill-opacity:1;fill-rule:nonzero;stroke:none"
       d="M 0,0 H 500 V 500 H 0 Z" /><g
       id="g14"><g
         clip-path="url(#clipPath20)"
         id="g16"><g
           transform="translate(80.6357,96.3574)"
           id="g22"><path
             id="path24"
             style="fill:#f2dad8;fill-opacity:1;fill-rule:evenodd;stroke:none"
             d="m 0,0 c -87.569,35.236 -61.417,144.114 10.254,186.224 32.6,19.154 69.347,31.232 71.74,80.828 4.344,90.153 100.436,90.891 161.541,43.848 50.877,-39.169 38.361,-87.176 77.258,-118.533 C 364.104,157.453 438.062,84.351 359.551,9.098 L 196.759,-16.054 Z" /></g></g></g><g
       id="g26"><g
         clip-path="url(#clipPath32)"
         id="g28"><g
           transform="translate(86.8921,450.543)"
           id="g34"><path
             id="path36"
             style="fill:#e3a9ab;fill-opacity:1;fill-rule:evenodd;stroke:none"
             d="m 0,0 h -20.184 -0.004 -0.005 -20.183 v -9.778 h 20.183 0.009 H 0 Z M 40.732,0 H 20.549 20.544 20.54 0.356 V -9.778 H 20.54 20.549 40.732 Z M 81.465,0 H 61.282 61.277 61.272 41.089 v -9.778 h 20.183 0.01 20.183 z m 40.733,0 h -20.184 -0.005 -0.004 -20.184 v -9.778 h 20.184 0.009 20.184 z m 40.732,0 h -20.183 -0.005 -0.005 -20.183 v -9.778 h 20.183 0.01 20.183 z m 40.733,0 h -20.183 -0.006 -0.004 -20.183 v -9.778 h 20.183 0.01 20.183 z m 40.731,0 h -20.183 -0.004 -0.005 -20.184 v -9.778 h 20.184 0.009 20.183 z m 40.732,0 h -20.183 -0.004 -0.004 -20.184 v -9.778 h 20.184 0.008 20.183 z m 40.735,0 h -20.184 -0.006 -0.004 -20.183 v -9.778 h 20.183 0.01 20.184 z m 40.732,0 H 346.41 346.406 346.4 326.216 v -9.778 h 20.184 0.01 20.183 z M -20.366,-10.076 h -20.183 -0.005 -0.005 -20.184 v -9.779 h 20.184 0.01 20.183 z m 40.732,0 H 0.183 0.178 0.174 -20.01 v -9.779 H 0.174 0.183 20.366 Z m 40.733,0 H 40.915 40.911 40.906 20.723 v -9.779 h 20.183 0.009 20.184 z m 40.732,0 H 81.648 81.643 81.639 61.455 v -9.779 h 20.184 0.009 20.183 z m 40.732,0 h -20.183 -0.004 -0.005 -20.183 v -9.779 h 20.183 0.009 20.183 z m 40.733,0 h -20.183 -0.005 -0.004 -20.184 v -9.779 h 20.184 0.009 20.183 z m 40.733,0 h -20.184 -0.004 -0.006 -20.183 v -9.779 h 20.183 0.01 20.184 z m 40.732,0 h -20.183 -0.004 -0.004 -20.186 v -9.779 h 20.186 0.008 20.183 z m 40.733,0 H 285.31 285.306 285.3 265.119 v -9.779 h 20.181 0.01 20.184 z m 40.732,0 h -20.184 -0.003 -0.004 -20.186 v -9.779 h 20.186 0.007 20.184 z m 40.732,0 h -20.183 -0.004 -0.004 -20.185 v -9.779 h 20.185 0.008 20.183 z M 0,-20.153 h -20.184 -0.004 -0.005 -20.183 v -9.78 h 20.183 0.009 H 0 Z m 40.732,0 H 20.549 20.544 20.54 0.356 v -9.78 h 20.184 0.009 20.183 z m 40.733,0 H 61.282 61.277 61.272 41.089 v -9.78 h 20.183 0.01 20.183 z m 40.733,0 h -20.184 -0.005 -0.004 -20.184 v -9.78 h 20.184 0.009 20.184 z m 40.732,0 h -20.183 -0.005 -0.005 -20.183 v -9.78 h 20.183 0.01 20.183 z m 40.733,0 h -20.183 -0.006 -0.004 -20.183 v -9.78 h 20.183 0.01 20.183 z m 40.731,0 h -20.183 -0.004 -0.005 -20.184 v -9.78 h 20.184 0.009 20.183 z m 40.732,0 h -20.183 -0.004 -0.004 -20.184 v -9.78 h 20.184 0.008 20.183 z m 40.735,0 h -20.184 -0.006 -0.004 -20.183 v -9.78 h 20.183 0.01 20.184 z m 40.732,0 H 346.41 346.406 346.4 326.216 v -9.78 h 20.184 0.01 20.183 z M -20.366,-30.229 h -20.183 -0.005 -0.005 -20.184 v -9.78 h 20.184 0.01 20.183 z m 40.732,0 H 0.183 0.178 0.174 -20.01 v -9.78 H 0.174 0.183 20.366 Z m 40.733,0 H 40.915 40.911 40.906 20.723 v -9.78 h 20.183 0.009 20.184 z m 40.732,0 H 81.648 81.643 81.639 61.455 v -9.78 h 20.184 0.009 20.183 z m 40.732,0 h -20.183 -0.004 -0.005 -20.183 v -9.78 h 20.183 0.009 20.183 z m 40.733,0 h -20.183 -0.005 -0.004 -20.184 v -9.78 h 20.184 0.009 20.183 z m 40.733,0 h -20.184 -0.004 -0.006 -20.183 v -9.78 h 20.183 0.01 20.184 z m 40.732,0 h -20.183 -0.004 -0.004 -20.186 v -9.78 h 20.186 0.008 20.183 z m 40.733,0 H 285.31 285.306 285.3 265.119 v -9.78 h 20.181 0.01 20.184 z m 40.732,0 h -20.184 -0.003 -0.004 -20.186 v -9.78 h 20.186 0.007 20.184 z m 40.732,0 h -20.183 -0.004 -0.004 -20.185 v -9.78 h 20.185 0.008 20.183 z M 0,-40.307 h -20.184 -0.004 -0.005 -20.183 v -9.779 h 20.183 0.009 H 0 Z m 40.732,0 H 20.549 20.544 20.54 0.356 v -9.779 h 20.184 0.009 20.183 z m 40.733,0 H 61.282 61.277 61.272 41.089 v -9.779 h 20.183 0.01 20.183 z m 40.733,0 h -20.184 -0.005 -0.004 -20.184 v -9.779 h 20.184 0.009 20.184 z m 40.732,0 h -20.183 -0.005 -0.005 -20.183 v -9.779 h 20.183 0.01 20.183 z m 40.733,0 h -20.183 -0.006 -0.004 -20.183 v -9.779 h 20.183 0.01 20.183 z m 40.731,0 h -20.183 -0.004 -0.005 -20.184 v -9.779 h 20.184 0.009 20.183 z m 40.732,0 h -20.183 -0.004 -0.004 -20.184 v -9.779 h 20.184 0.008 20.183 z m 40.735,0 h -20.184 -0.006 -0.004 -20.183 v -9.779 h 20.183 0.01 20.184 z m 40.732,0 H 346.41 346.406 346.4 326.216 v -9.779 h 20.184 0.01 20.183 z M -20.366,-50.384 h -20.183 -0.005 -0.005 -20.184 v -9.779 h 20.184 0.01 20.183 z m 40.732,0 H 0.183 0.178 0.174 -20.01 v -9.779 H 0.174 0.183 20.366 Z m 40.733,0 H 40.915 40.911 40.906 20.723 v -9.779 h 20.183 0.009 20.184 z m 40.732,0 H 81.648 81.643 81.639 61.455 v -9.779 h 20.184 0.009 20.183 z m 40.732,0 h -20.183 -0.004 -0.005 -20.183 v -9.779 h 20.183 0.009 20.183 z m 40.733,0 h -20.183 -0.005 -0.004 -20.184 v -9.779 h 20.184 0.009 20.183 z m 40.733,0 h -20.184 -0.004 -0.006 -20.183 v -9.779 h 20.183 0.01 20.184 z m 40.732,0 h -20.183 -0.004 -0.004 -20.186 v -9.779 h 20.186 0.008 20.183 z m 40.733,0 H 285.31 285.306 285.3 265.119 v -9.779 h 20.181 0.01 20.184 z m 40.732,0 h -20.184 -0.003 -0.004 -20.186 v -9.779 h 20.186 0.007 20.184 z m 40.732,0 h -20.183 -0.004 -0.004 -20.185 v -9.779 h 20.185 0.008 20.183 z M 0,-60.46 h -20.184 -0.004 -0.005 -20.183 v -9.779 h 20.183 0.009 H 0 Z m 40.732,0 H 20.549 20.544 20.54 0.356 v -9.779 h 20.184 0.009 20.183 z m 40.733,0 H 61.282 61.277 61.272 41.089 v -9.779 h 20.183 0.01 20.183 z m 40.733,0 h -20.184 -0.005 -0.004 -20.184 v -9.779 h 20.184 0.009 20.184 z m 40.732,0 h -20.183 -0.005 -0.005 -20.183 v -9.779 h 20.183 0.01 20.183 z m 40.733,0 h -20.183 -0.006 -0.004 -20.183 v -9.779 h 20.183 0.01 20.183 z m 40.731,0 h -20.183 -0.004 -0.005 -20.184 v -9.779 h 20.184 0.009 20.183 z m 40.732,0 h -20.183 -0.004 -0.004 -20.184 v -9.779 h 20.184 0.008 20.183 z m 40.735,0 h -20.184 -0.006 -0.004 -20.183 v -9.779 h 20.183 0.01 20.184 z m 40.732,0 H 346.41 346.406 346.4 326.216 v -9.779 h 20.184 0.01 20.183 z M -20.366,-70.537 h -20.183 -0.005 -0.005 -20.184 v -9.779 h 20.184 0.01 20.183 z m 40.732,0 H 0.183 0.178 0.174 -20.01 v -9.779 H 0.174 0.183 20.366 Z m 40.733,0 H 40.915 40.911 40.906 20.723 v -9.779 h 20.183 0.009 20.184 z m 40.732,0 H 81.648 81.643 81.639 61.455 v -9.779 h 20.184 0.009 20.183 z m 40.732,0 h -20.183 -0.004 -0.005 -20.183 v -9.779 h 20.183 0.009 20.183 z m 40.733,0 h -20.183 -0.005 -0.004 -20.184 v -9.779 h 20.184 0.009 20.183 z m 40.733,0 h -20.184 -0.004 -0.006 -20.183 v -9.779 h 20.183 0.01 20.184 z m 40.732,0 h -20.183 -0.004 -0.004 -20.186 v -9.779 h 20.186 0.008 20.183 z m 40.733,0 H 285.31 285.306 285.3 265.119 v -9.779 h 20.181 0.01 20.184 z m 40.732,0 h -20.184 -0.003 -0.004 -20.186 v -9.779 h 20.186 0.007 20.184 z m 40.732,0 h -20.183 -0.004 -0.004 -20.185 v -9.779 h 20.185 0.008 20.183 z M 0,-80.613 h -20.184 -0.004 -0.005 -20.183 v -9.78 h 20.183 0.009 H 0 Z m 40.732,0 H 20.549 20.544 20.54 0.356 v -9.78 h 20.184 0.009 20.183 z m 40.733,0 H 61.282 61.277 61.272 41.089 v -9.78 h 20.183 0.01 20.183 z m 40.733,0 h -20.184 -0.005 -0.004 -20.184 v -9.78 h 20.184 0.009 20.184 z m 40.732,0 h -20.183 -0.005 -0.005 -20.183 v -9.78 h 20.183 0.01 20.183 z m 40.733,0 h -20.183 -0.006 -0.004 -20.183 v -9.78 h 20.183 0.01 20.183 z m 40.731,0 h -20.183 -0.004 -0.005 -20.184 v -9.78 h 20.184 0.009 20.183 z m 40.732,0 h -20.183 -0.004 -0.004 -20.184 v -9.78 h 20.184 0.008 20.183 z m 40.735,0 h -20.184 -0.006 -0.004 -20.183 v -9.78 h 20.183 0.01 20.184 z m 40.732,0 H 346.41 346.406 346.4 326.216 v -9.78 h 20.184 0.01 20.183 z M -20.366,-90.69 h -20.183 -0.005 -0.005 -20.184 v -9.78 h 20.184 0.01 20.183 z m 40.732,0 H 0.183 0.178 0.174 -20.01 v -9.78 H 0.174 0.183 20.366 Z m 40.733,0 H 40.915 40.911 40.906 20.723 v -9.78 h 20.183 0.009 20.184 z m 40.732,0 H 81.648 81.643 81.639 61.455 v -9.78 h 20.184 0.009 20.183 z m 40.732,0 h -20.183 -0.004 -0.005 -20.183 v -9.78 h 20.183 0.009 20.183 z m 40.733,0 h -20.183 -0.005 -0.004 -20.184 v -9.78 h 20.184 0.009 20.183 z m 40.733,0 h -20.184 -0.004 -0.006 -20.183 v -9.78 h 20.183 0.01 20.184 z m 40.732,0 h -20.183 -0.004 -0.004 -20.186 v -9.78 h 20.186 0.008 20.183 z m 40.733,0 H 285.31 285.306 285.3 265.119 v -9.78 h 20.181 0.01 20.184 z m 40.732,0 h -20.184 -0.003 -0.004 -20.186 v -9.78 h 20.186 0.007 20.184 z m 40.732,0 h -20.183 -0.004 -0.004 -20.185 v -9.78 h 20.185 0.008 20.183 z M 0,-100.768 h -20.184 -0.004 -0.005 -20.183 v -9.779 h 20.183 0.009 H 0 Z m 40.732,0 H 20.549 20.544 20.54 0.356 v -9.779 h 20.184 0.009 20.183 z m 40.733,0 H 61.282 61.277 61.272 41.089 v -9.779 h 20.183 0.01 20.183 z m 40.733,0 h -20.184 -0.005 -0.004 -20.184 v -9.779 h 20.184 0.009 20.184 z m 40.732,0 h -20.183 -0.005 -0.005 -20.183 v -9.779 h 20.183 0.01 20.183 z m 40.733,0 h -20.183 -0.006 -0.004 -20.183 v -9.779 h 20.183 0.01 20.183 z m 40.731,0 h -20.183 -0.004 -0.005 -20.184 v -9.779 h 20.184 0.009 20.183 z m 40.732,0 h -20.183 -0.004 -0.004 -20.184 v -9.779 h 20.184 0.008 20.183 z m 40.735,0 h -20.184 -0.006 -0.004 -20.183 v -9.779 h 20.183 0.01 20.184 z m 40.732,0 H 346.41 346.406 346.4 326.216 v -9.779 h 20.184 0.01 20.183 z m -386.959,-10.076 h -20.183 -0.005 -0.005 -20.184 v -9.779 h 20.184 0.01 20.183 z m 40.732,0 H 0.183 0.178 0.174 -20.01 v -9.779 H 0.174 0.183 20.366 Z m 40.733,0 H 40.915 40.911 40.906 20.723 v -9.779 h 20.183 0.009 20.184 z m 40.732,0 H 81.648 81.643 81.639 61.455 v -9.779 h 20.184 0.009 20.183 z m 40.732,0 h -20.183 -0.004 -0.005 -20.183 v -9.779 h 20.183 0.009 20.183 z m 40.733,0 h -20.183 -0.005 -0.004 -20.184 v -9.779 h 20.184 0.009 20.183 z m 40.733,0 h -20.184 -0.004 -0.006 -20.183 v -9.779 h 20.183 0.01 20.184 z m 40.732,0 h -20.183 -0.004 -0.004 -20.186 v -9.779 h 20.186 0.008 20.183 z m 40.733,0 H 285.31 285.306 285.3 265.119 v -9.779 h 20.181 0.01 20.184 z m 40.732,0 h -20.184 -0.003 -0.004 -20.186 v -9.779 h 20.186 0.007 20.184 z m 40.732,0 h -20.183 -0.004 -0.004 -20.185 v -9.779 h 20.185 0.008 20.183 z M 0,-120.921 h -20.184 -0.004 -0.005 -20.183 v -9.779 h 20.183 0.009 H 0 Z m 40.732,0 H 20.549 20.544 20.54 0.356 v -9.779 h 20.184 0.009 20.183 z m 40.733,0 H 61.282 61.277 61.272 41.089 v -9.779 h 20.183 0.01 20.183 z m 40.733,0 h -20.184 -0.005 -0.004 -20.184 v -9.779 h 20.184 0.009 20.184 z m 40.732,0 h -20.183 -0.005 -0.005 -20.183 v -9.779 h 20.183 0.01 20.183 z m 40.733,0 h -20.183 -0.006 -0.004 -20.183 v -9.779 h 20.183 0.01 20.183 z m 40.731,0 h -20.183 -0.004 -0.005 -20.184 v -9.779 h 20.184 0.009 20.183 z m 40.732,0 h -20.183 -0.004 -0.004 -20.184 v -9.779 h 20.184 0.008 20.183 z m 40.735,0 h -20.184 -0.006 -0.004 -20.183 v -9.779 h 20.183 0.01 20.184 z m 40.732,0 H 346.41 346.406 346.4 326.216 v -9.779 h 20.184 0.01 20.183 z m -386.959,-10.076 h -20.183 -0.005 -0.005 -20.184 v -9.779 h 20.184 0.01 20.183 z m 40.732,0 H 0.183 0.178 0.174 -20.01 v -9.779 H 0.174 0.183 20.366 Z m 40.733,0 H 40.915 40.911 40.906 20.723 v -9.779 h 20.183 0.009 20.184 z m 40.732,0 H 81.648 81.643 81.639 61.455 v -9.779 h 20.184 0.009 20.183 z m 40.732,0 h -20.183 -0.004 -0.005 -20.183 v -9.779 h 20.183 0.009 20.183 z m 40.733,0 h -20.183 -0.005 -0.004 -20.184 v -9.779 h 20.184 0.009 20.183 z m 40.733,0 h -20.184 -0.004 -0.006 -20.183 v -9.779 h 20.183 0.01 20.184 z m 40.732,0 h -20.183 -0.004 -0.004 -20.186 v -9.779 h 20.186 0.008 20.183 z m 40.733,0 H 285.31 285.306 285.3 265.119 v -9.779 h 20.181 0.01 20.184 z m 40.732,0 h -20.184 -0.003 -0.004 -20.186 v -9.779 h 20.186 0.007 20.184 z m 40.732,0 h -20.183 -0.004 -0.004 -20.185 v -9.779 h 20.185 0.008 20.183 z M 0,-141.074 h -20.184 -0.004 -0.005 -20.183 v -9.78 h 20.183 0.009 H 0 Z m 40.732,0 H 20.549 20.544 20.54 0.356 v -9.78 h 20.184 0.009 20.183 z m 40.733,0 H 61.282 61.277 61.272 41.089 v -9.78 h 20.183 0.01 20.183 z m 40.733,0 h -20.184 -0.005 -0.004 -20.184 v -9.78 h 20.184 0.009 20.184 z m 40.732,0 h -20.183 -0.005 -0.005 -20.183 v -9.78 h 20.183 0.01 20.183 z m 40.733,0 h -20.183 -0.006 -0.004 -20.183 v -9.78 h 20.183 0.01 20.183 z m 40.731,0 h -20.183 -0.004 -0.005 -20.184 v -9.78 h 20.184 0.009 20.183 z m 40.732,0 h -20.183 -0.004 -0.004 -20.184 v -9.78 h 20.184 0.008 20.183 z m 40.735,0 h -20.184 -0.006 -0.004 -20.183 v -9.78 h 20.183 0.01 20.184 z m 40.732,0 H 346.41 346.406 346.4 326.216 v -9.78 h 20.184 0.01 20.183 z m -386.959,-10.077 h -20.183 -0.005 -0.005 -20.184 v -9.779 h 20.184 0.01 20.183 z m 40.732,0 H 0.183 0.178 0.174 -20.01 v -9.779 H 0.174 0.183 20.366 Z m 40.733,0 H 40.915 40.911 40.906 20.723 v -9.779 h 20.183 0.009 20.184 z m 40.732,0 H 81.648 81.643 81.639 61.455 v -9.779 h 20.184 0.009 20.183 z m 40.732,0 h -20.183 -0.004 -0.005 -20.183 v -9.779 h 20.183 0.009 20.183 z m 40.733,0 h -20.183 -0.005 -0.004 -20.184 v -9.779 h 20.184 0.009 20.183 z m 40.733,0 h -20.184 -0.004 -0.006 -20.183 v -9.779 h 20.183 0.01 20.184 z m 40.732,0 h -20.183 -0.004 -0.004 -20.186 v -9.779 h 20.186 0.008 20.183 z m 40.733,0 H 285.31 285.306 285.3 265.119 v -9.779 h 20.181 0.01 20.184 z m 40.732,0 h -20.184 -0.003 -0.004 -20.186 v -9.779 h 20.186 0.007 20.184 z m 40.732,0 h -20.183 -0.004 -0.004 -20.185 v -9.779 h 20.185 0.008 20.183 z M 0,-161.228 h -20.184 -0.004 -0.005 -20.183 v -9.779 h 20.183 0.009 H 0 Z m 40.732,0 H 20.549 20.544 20.54 0.356 v -9.779 h 20.184 0.009 20.183 z m 40.733,0 H 61.282 61.277 61.272 41.089 v -9.779 h 20.183 0.01 20.183 z m 40.733,0 h -20.184 -0.005 -0.004 -20.184 v -9.779 h 20.184 0.009 20.184 z m 40.732,0 h -20.183 -0.005 -0.005 -20.183 v -9.779 h 20.183 0.01 20.183 z m 40.733,0 h -20.183 -0.006 -0.004 -20.183 v -9.779 h 20.183 0.01 20.183 z m 40.731,0 h -20.183 -0.004 -0.005 -20.184 v -9.779 h 20.184 0.009 20.183 z m 40.732,0 h -20.183 -0.004 -0.004 -20.184 v -9.779 h 20.184 0.008 20.183 z m 40.735,0 h -20.184 -0.006 -0.004 -20.183 v -9.779 h 20.183 0.01 20.184 z m 40.732,0 H 346.41 346.406 346.4 326.216 v -9.779 h 20.184 0.01 20.183 z m -386.959,-10.077 h -20.183 -0.005 -0.005 -20.184 v -9.779 h 20.184 0.01 20.183 z m 40.732,0 H 0.183 0.178 0.174 -20.01 v -9.779 H 0.174 0.183 20.366 Z m 40.733,0 H 40.915 40.911 40.906 20.723 v -9.779 h 20.183 0.009 20.184 z m 40.732,0 H 81.648 81.643 81.639 61.455 v -9.779 h 20.184 0.009 20.183 z m 40.732,0 h -20.183 -0.004 -0.005 -20.183 v -9.779 h 20.183 0.009 20.183 z m 40.733,0 h -20.183 -0.005 -0.004 -20.184 v -9.779 h 20.184 0.009 20.183 z m 40.733,0 h -20.184 -0.004 -0.006 -20.183 v -9.779 h 20.183 0.01 20.184 z m 40.732,0 h -20.183 -0.004 -0.004 -20.186 v -9.779 h 20.186 0.008 20.183 z m 40.733,0 H 285.31 285.306 285.3 265.119 v -9.779 h 20.181 0.01 20.184 z m 40.732,0 h -20.184 -0.003 -0.004 -20.186 v -9.779 h 20.186 0.007 20.184 z m 40.732,0 h -20.183 -0.004 -0.004 -20.185 v -9.779 h 20.185 0.008 20.183 z M 0,-181.381 h -20.184 -0.004 -0.005 -20.183 v -9.779 h 20.183 0.009 H 0 Z m 40.732,0 H 20.549 20.544 20.54 0.356 v -9.779 h 20.184 0.009 20.183 z m 40.733,0 H 61.282 61.277 61.272 41.089 v -9.779 h 20.183 0.01 20.183 z m 40.733,0 h -20.184 -0.005 -0.004 -20.184 v -9.779 h 20.184 0.009 20.184 z m 40.732,0 h -20.183 -0.005 -0.005 -20.183 v -9.779 h 20.183 0.01 20.183 z m 40.733,0 h -20.183 -0.006 -0.004 -20.183 v -9.779 h 20.183 0.01 20.183 z m 40.731,0 h -20.183 -0.004 -0.005 -20.184 v -9.779 h 20.184 0.009 20.183 z m 40.732,0 h -20.183 -0.004 -0.004 -20.184 v -9.779 h 20.184 0.008 20.183 z m 40.735,0 h -20.184 -0.006 -0.004 -20.183 v -9.779 h 20.183 0.01 20.184 z m 40.732,0 H 346.41 346.406 346.4 326.216 v -9.779 h 20.184 0.01 20.183 z m -386.959,-10.077 h -20.183 -0.005 -0.005 -20.184 v -9.779 h 20.184 0.01 20.183 z m 40.732,0 H 0.183 0.178 0.174 -20.01 v -9.779 H 0.174 0.183 20.366 Z m 40.733,0 H 40.915 40.911 40.906 20.723 v -9.779 h 20.183 0.009 20.184 z m 40.732,0 H 81.648 81.643 81.639 61.455 v -9.779 h 20.184 0.009 20.183 z m 40.732,0 h -20.183 -0.004 -0.005 -20.183 v -9.779 h 20.183 0.009 20.183 z m 40.733,0 h -20.183 -0.005 -0.004 -20.184 v -9.779 h 20.184 0.009 20.183 z m 40.733,0 h -20.184 -0.004 -0.006 -20.183 v -9.779 h 20.183 0.01 20.184 z m 40.732,0 h -20.183 -0.004 -0.004 -20.186 v -9.779 h 20.186 0.008 20.183 z m 40.733,0 H 285.31 285.306 285.3 265.119 v -9.779 h 20.181 0.01 20.184 z m 40.732,0 h -20.184 -0.003 -0.004 -20.186 v -9.779 h 20.186 0.007 20.184 z m 40.732,0 h -20.183 -0.004 -0.004 -20.185 v -9.779 h 20.185 0.008 20.183 z M 0,-201.535 h -20.184 -0.004 -0.005 -20.183 v -9.779 h 20.183 0.009 H 0 Z m 40.732,0 H 20.549 20.544 20.54 0.356 v -9.779 h 20.184 0.009 20.183 z m 40.733,0 H 61.282 61.277 61.272 41.089 v -9.779 h 20.183 0.01 20.183 z m 40.733,0 h -20.184 -0.005 -0.004 -20.184 v -9.779 h 20.184 0.009 20.184 z m 40.732,0 h -20.183 -0.005 -0.005 -20.183 v -9.779 h 20.183 0.01 20.183 z m 40.733,0 h -20.183 -0.006 -0.004 -20.183 v -9.779 h 20.183 0.01 20.183 z m 40.731,0 h -20.183 -0.004 -0.005 -20.184 v -9.779 h 20.184 0.009 20.183 z m 40.732,0 h -20.183 -0.004 -0.004 -20.184 v -9.779 h 20.184 0.008 20.183 z m 40.735,0 h -20.184 -0.006 -0.004 -20.183 v -9.779 h 20.183 0.01 20.184 z m 40.732,0 H 346.41 346.406 346.4 326.216 v -9.779 h 20.184 0.01 20.183 z m -386.959,-10.076 h -20.183 -0.005 -0.005 -20.184 v -9.78 h 20.184 0.01 20.183 z m 40.732,0 H 0.183 0.178 0.174 -20.01 v -9.78 H 0.174 0.183 20.366 Z m 40.733,0 H 40.915 40.911 40.906 20.723 v -9.78 h 20.183 0.009 20.184 z m 40.732,0 H 81.648 81.643 81.639 61.455 v -9.78 h 20.184 0.009 20.183 z m 40.732,0 h -20.183 -0.004 -0.005 -20.183 v -9.78 h 20.183 0.009 20.183 z m 40.733,0 h -20.183 -0.005 -0.004 -20.184 v -9.78 h 20.184 0.009 20.183 z m 40.733,0 h -20.184 -0.004 -0.006 -20.183 v -9.78 h 20.183 0.01 20.184 z m 40.732,0 h -20.183 -0.004 -0.004 -20.186 v -9.78 h 20.186 0.008 20.183 z m 40.733,0 H 285.31 285.306 285.3 265.119 v -9.78 h 20.181 0.01 20.184 z m 40.732,0 h -20.184 -0.003 -0.004 -20.186 v -9.78 h 20.186 0.007 20.184 z m 40.732,0 h -20.183 -0.004 -0.004 -20.185 v -9.78 h 20.185 0.008 20.183 z M 0,-221.688 h -20.184 -0.004 -0.005 -20.183 v -9.78 h 20.183 0.009 H 0 Z m 40.732,0 H 20.549 20.544 20.54 0.356 v -9.78 h 20.184 0.009 20.183 z m 40.733,0 H 61.282 61.277 61.272 41.089 v -9.78 h 20.183 0.01 20.183 z m 40.733,0 h -20.184 -0.005 -0.004 -20.184 v -9.78 h 20.184 0.009 20.184 z m 40.732,0 h -20.183 -0.005 -0.005 -20.183 v -9.78 h 20.183 0.01 20.183 z m 40.733,0 h -20.183 -0.006 -0.004 -20.183 v -9.78 h 20.183 0.01 20.183 z m 40.731,0 h -20.183 -0.004 -0.005 -20.184 v -9.78 h 20.184 0.009 20.183 z m 40.732,0 h -20.183 -0.004 -0.004 -20.184 v -9.78 h 20.184 0.008 20.183 z m 40.735,0 h -20.184 -0.006 -0.004 -20.183 v -9.78 h 20.183 0.01 20.184 z m 40.732,0 H 346.41 346.406 346.4 326.216 v -9.78 h 20.184 0.01 20.183 z m -386.959,-10.077 h -20.183 -0.005 -0.005 -20.184 v -9.779 h 20.184 0.01 20.183 z m 40.732,0 H 0.183 0.178 0.174 -20.01 v -9.779 H 0.174 0.183 20.366 Z m 40.733,0 H 40.915 40.911 40.906 20.723 v -9.779 h 20.183 0.009 20.184 z m 40.732,0 H 81.648 81.643 81.639 61.455 v -9.779 h 20.184 0.009 20.183 z m 40.732,0 h -20.183 -0.004 -0.005 -20.183 v -9.779 h 20.183 0.009 20.183 z m 40.733,0 h -20.183 -0.005 -0.004 -20.184 v -9.779 h 20.184 0.009 20.183 z m 40.733,0 h -20.184 -0.004 -0.006 -20.183 v -9.779 h 20.183 0.01 20.184 z m 40.732,0 h -20.183 -0.004 -0.004 -20.186 v -9.779 h 20.186 0.008 20.183 z m 40.733,0 H 285.31 285.306 285.3 265.119 v -9.779 h 20.181 0.01 20.184 z m 40.732,0 h -20.184 -0.003 -0.004 -20.186 v -9.779 h 20.186 0.007 20.184 z m 40.732,0 h -20.183 -0.004 -0.004 -20.185 v -9.779 h 20.185 0.008 20.183 z M 0,-241.842 h -20.184 -0.004 -0.005 -20.183 v -9.779 h 20.183 0.009 H 0 Z m 40.732,0 H 20.549 20.544 20.54 0.356 v -9.779 h 20.184 0.009 20.183 z m 40.733,0 H 61.282 61.277 61.272 41.089 v -9.779 h 20.183 0.01 20.183 z m 40.733,0 h -20.184 -0.005 -0.004 -20.184 v -9.779 h 20.184 0.009 20.184 z m 40.732,0 h -20.183 -0.005 -0.005 -20.183 v -9.779 h 20.183 0.01 20.183 z m 40.733,0 h -20.183 -0.006 -0.004 -20.183 v -9.779 h 20.183 0.01 20.183 z m 40.731,0 h -20.183 -0.004 -0.005 -20.184 v -9.779 h 20.184 0.009 20.183 z m 40.732,0 h -20.183 -0.004 -0.004 -20.184 v -9.779 h 20.184 0.008 20.183 z m 40.735,0 h -20.184 -0.006 -0.004 -20.183 v -9.779 h 20.183 0.01 20.184 z m 40.732,0 H 346.41 346.406 346.4 326.216 v -9.779 h 20.184 0.01 20.183 z m -386.959,-10.077 h -20.183 -0.005 -0.005 -20.184 v -9.779 h 20.184 0.01 20.183 z m 40.732,0 H 0.183 0.178 0.174 -20.01 v -9.779 H 0.174 0.183 20.366 Z m 40.733,0 H 40.915 40.911 40.906 20.723 v -9.779 h 20.183 0.009 20.184 z m 40.732,0 H 81.648 81.643 81.639 61.455 v -9.779 h 20.184 0.009 20.183 z m 40.732,0 h -20.183 -0.004 -0.005 -20.183 v -9.779 h 20.183 0.009 20.183 z m 40.733,0 h -20.183 -0.005 -0.004 -20.184 v -9.779 h 20.184 0.009 20.183 z m 40.733,0 h -20.184 -0.004 -0.006 -20.183 v -9.779 h 20.183 0.01 20.184 z m 40.732,0 h -20.183 -0.004 -0.004 -20.186 v -9.779 h 20.186 0.008 20.183 z m 40.733,0 H 285.31 285.306 285.3 265.119 v -9.779 h 20.181 0.01 20.184 z m 40.732,0 h -20.184 -0.003 -0.004 -20.186 v -9.779 h 20.186 0.007 20.184 z m 40.732,0 h -20.183 -0.004 -0.004 -20.185 v -9.779 h 20.185 0.008 20.183 z M 0,-261.995 h -20.184 -0.004 -0.005 -20.183 v -9.779 h 20.183 0.009 H 0 Z m 40.732,0 H 20.549 20.544 20.54 0.356 v -9.779 h 20.184 0.009 20.183 z m 40.733,0 H 61.282 61.277 61.272 41.089 v -9.779 h 20.183 0.01 20.183 z m 40.733,0 h -20.184 -0.005 -0.004 -20.184 v -9.779 h 20.184 0.009 20.184 z m 40.732,0 h -20.183 -0.005 -0.005 -20.183 v -9.779 h 20.183 0.01 20.183 z m 40.733,0 h -20.183 -0.006 -0.004 -20.183 v -9.779 h 20.183 0.01 20.183 z m 40.731,0 h -20.183 -0.004 -0.005 -20.184 v -9.779 h 20.184 0.009 20.183 z m 40.732,0 h -20.183 -0.004 -0.004 -20.184 v -9.779 h 20.184 0.008 20.183 z m 40.735,0 h -20.184 -0.006 -0.004 -20.183 v -9.779 h 20.183 0.01 20.184 z m 40.732,0 H 346.41 346.406 346.4 326.216 v -9.779 h 20.184 0.01 20.183 z m -386.959,-10.077 h -20.183 -0.005 -0.005 -20.184 v -9.78 h 20.184 0.01 20.183 z m 40.732,0 H 0.183 0.178 0.174 -20.01 v -9.78 H 0.174 0.183 20.366 Z m 40.733,0 H 40.915 40.911 40.906 20.723 v -9.78 h 20.183 0.009 20.184 z m 40.732,0 H 81.648 81.643 81.639 61.455 v -9.78 h 20.184 0.009 20.183 z m 40.732,0 h -20.183 -0.004 -0.005 -20.183 v -9.78 h 20.183 0.009 20.183 z m 40.733,0 h -20.183 -0.005 -0.004 -20.184 v -9.78 h 20.184 0.009 20.183 z m 40.733,0 h -20.184 -0.004 -0.006 -20.183 v -9.78 h 20.183 0.01 20.184 z m 40.732,0 h -20.183 -0.004 -0.004 -20.186 v -9.78 h 20.186 0.008 20.183 z m 40.733,0 H 285.31 285.306 285.3 265.119 v -9.78 h 20.181 0.01 20.184 z m 40.732,0 h -20.184 -0.003 -0.004 -20.186 v -9.78 h 20.186 0.007 20.184 z m 40.732,0 h -20.183 -0.004 -0.004 -20.185 v -9.78 h 20.185 0.008 20.183 z M 0,-282.149 h -20.184 -0.004 -0.005 -20.183 v -9.78 h 20.183 0.009 H 0 Z m 40.732,0 H 20.549 20.544 20.54 0.356 v -9.78 h 20.184 0.009 20.183 z m 40.733,0 H 61.282 61.277 61.272 41.089 v -9.78 h 20.183 0.01 20.183 z m 40.733,0 h -20.184 -0.005 -0.004 -20.184 v -9.78 h 20.184 0.009 20.184 z m 40.732,0 h -20.183 -0.005 -0.005 -20.183 v -9.78 h 20.183 0.01 20.183 z m 40.733,0 h -20.183 -0.006 -0.004 -20.183 v -9.78 h 20.183 0.01 20.183 z m 40.731,0 h -20.183 -0.004 -0.005 -20.184 v -9.78 h 20.184 0.009 20.183 z m 40.732,0 h -20.183 -0.004 -0.004 -20.184 v -9.78 h 20.184 0.008 20.183 z m 40.735,0 h -20.184 -0.006 -0.004 -20.183 v -9.78 h 20.183 0.01 20.184 z m 40.732,0 H 346.41 346.406 346.4 326.216 v -9.78 h 20.184 0.01 20.183 z m -386.959,-10.077 h -20.183 -0.005 -0.005 -20.184 v -9.779 h 20.184 0.01 20.183 z m 40.732,0 H 0.183 0.178 0.174 -20.01 v -9.779 H 0.174 0.183 20.366 Z m 40.733,0 H 40.915 40.911 40.906 20.723 v -9.779 h 20.183 0.009 20.184 z m 40.732,0 H 81.648 81.643 81.639 61.455 v -9.779 h 20.184 0.009 20.183 z m 40.732,0 h -20.183 -0.004 -0.005 -20.183 v -9.779 h 20.183 0.009 20.183 z m 40.733,0 h -20.183 -0.005 -0.004 -20.184 v -9.779 h 20.184 0.009 20.183 z m 40.733,0 h -20.184 -0.004 -0.006 -20.183 v -9.779 h 20.183 0.01 20.184 z m 40.732,0 h -20.183 -0.004 -0.004 -20.186 v -9.779 h 20.186 0.008 20.183 z m 40.733,0 H 285.31 285.306 285.3 265.119 v -9.779 h 20.181 0.01 20.184 z m 40.732,0 h -20.184 -0.003 -0.004 -20.186 v -9.779 h 20.186 0.007 20.184 z m 40.732,0 h -20.183 -0.004 -0.004 -20.185 v -9.779 h 20.185 0.008 20.183 z M 0,-302.302 h -20.184 -0.004 -0.005 -20.183 v -9.779 h 20.183 0.009 H 0 Z m 40.732,0 H 20.549 20.544 20.54 0.356 v -9.779 h 20.184 0.009 20.183 z m 40.733,0 H 61.282 61.277 61.272 41.089 v -9.779 h 20.183 0.01 20.183 z m 40.733,0 h -20.184 -0.005 -0.004 -20.184 v -9.779 h 20.184 0.009 20.184 z m 40.732,0 h -20.183 -0.005 -0.005 -20.183 v -9.779 h 20.183 0.01 20.183 z m 40.733,0 h -20.183 -0.006 -0.004 -20.183 v -9.779 h 20.183 0.01 20.183 z m 40.731,0 h -20.183 -0.004 -0.005 -20.184 v -9.779 h 20.184 0.009 20.183 z m 40.732,0 h -20.183 -0.004 -0.004 -20.184 v -9.779 h 20.184 0.008 20.183 z m 40.735,0 h -20.184 -0.006 -0.004 -20.183 v -9.779 h 20.183 0.01 20.184 z m 40.732,0 H 346.41 346.406 346.4 326.216 v -9.779 h 20.184 0.01 20.183 z m -386.959,-10.077 h -20.183 -0.005 -0.005 -20.184 v -9.779 h 20.184 0.01 20.183 z m 40.732,0 H 0.183 0.178 0.174 -20.01 v -9.779 H 0.174 0.183 20.366 Z m 40.733,0 H 40.915 40.911 40.906 20.723 v -9.779 h 20.183 0.009 20.184 z m 40.732,0 H 81.648 81.643 81.639 61.455 v -9.779 h 20.184 0.009 20.183 z m 40.732,0 h -20.183 -0.004 -0.005 -20.183 v -9.779 h 20.183 0.009 20.183 z m 40.733,0 h -20.183 -0.005 -0.004 -20.184 v -9.779 h 20.184 0.009 20.183 z m 40.733,0 h -20.184 -0.004 -0.006 -20.183 v -9.779 h 20.183 0.01 20.184 z m 40.732,0 h -20.183 -0.004 -0.004 -20.186 v -9.779 h 20.186 0.008 20.183 z m 40.733,0 H 285.31 285.306 285.3 265.119 v -9.779 h 20.181 0.01 20.184 z m 40.732,0 h -20.184 -0.003 -0.004 -20.186 v -9.779 h 20.186 0.007 20.184 z m 40.732,0 h -20.183 -0.004 -0.004 -20.185 v -9.779 h 20.185 0.008 20.183 z M 0,-322.456 h -20.184 -0.004 -0.005 -20.183 v -9.779 h 20.183 0.009 H 0 Z m 40.732,0 H 20.549 20.544 20.54 0.356 v -9.779 h 20.184 0.009 20.183 z m 40.733,0 H 61.282 61.277 61.272 41.089 v -9.779 h 20.183 0.01 20.183 z m 40.733,0 h -20.184 -0.005 -0.004 -20.184 v -9.779 h 20.184 0.009 20.184 z m 40.732,0 h -20.183 -0.005 -0.005 -20.183 v -9.779 h 20.183 0.01 20.183 z m 40.733,0 h -20.183 -0.006 -0.004 -20.183 v -9.779 h 20.183 0.01 20.183 z m 40.731,0 h -20.183 -0.004 -0.005 -20.184 v -9.779 h 20.184 0.009 20.183 z m 40.732,0 h -20.183 -0.004 -0.004 -20.184 v -9.779 h 20.184 0.008 20.183 z m 40.735,0 h -20.184 -0.006 -0.004 -20.183 v -9.779 h 20.183 0.01 20.184 z m 40.732,0 H 346.41 346.406 346.4 326.216 v -9.779 h 20.184 0.01 20.183 z m -386.959,-10.076 h -20.183 -0.005 -0.005 -20.184 v -9.78 h 20.184 0.01 20.183 z m 40.732,0 H 0.183 0.178 0.174 -20.01 v -9.78 H 0.174 0.183 20.366 Z m 40.733,0 H 40.915 40.911 40.906 20.723 v -9.78 h 20.183 0.009 20.184 z m 40.732,0 H 81.648 81.643 81.639 61.455 v -9.78 h 20.184 0.009 20.183 z m 40.732,0 h -20.183 -0.004 -0.005 -20.183 v -9.78 h 20.183 0.009 20.183 z m 40.733,0 h -20.183 -0.005 -0.004 -20.184 v -9.78 h 20.184 0.009 20.183 z m 40.733,0 h -20.184 -0.004 -0.006 -20.183 v -9.78 h 20.183 0.01 20.184 z m 40.732,0 h -20.183 -0.004 -0.004 -20.186 v -9.78 h 20.186 0.008 20.183 z m 40.733,0 H 285.31 285.306 285.3 265.119 v -9.78 h 20.181 0.01 20.184 z m 40.732,0 h -20.184 -0.003 -0.004 -20.186 v -9.78 h 20.186 0.007 20.184 z m 40.732,0 h -20.183 -0.004 -0.004 -20.185 v -9.78 h 20.185 0.008 20.183 z M 0,-342.609 h -20.184 -0.004 -0.005 -20.183 v -9.78 h 20.183 0.009 H 0 Z m 40.732,0 H 20.549 20.544 20.54 0.356 v -9.78 h 20.184 0.009 20.183 z m 40.733,0 H 61.282 61.277 61.272 41.089 v -9.78 h 20.183 0.01 20.183 z m 40.733,0 h -20.184 -0.005 -0.004 -20.184 v -9.78 h 20.184 0.009 20.184 z m 40.732,0 h -20.183 -0.005 -0.005 -20.183 v -9.78 h 20.183 0.01 20.183 z m 40.733,0 h -20.183 -0.006 -0.004 -20.183 v -9.78 h 20.183 0.01 20.183 z m 40.731,0 h -20.183 -0.004 -0.005 -20.184 v -9.78 h 20.184 0.009 20.183 z m 40.732,0 h -20.183 -0.004 -0.004 -20.184 v -9.78 h 20.184 0.008 20.183 z m 40.735,0 h -20.184 -0.006 -0.004 -20.183 v -9.78 h 20.183 0.01 20.184 z m 40.732,0 H 346.41 346.406 346.4 326.216 v -9.78 h 20.184 0.01 20.183 z m -386.959,-10.078 h -20.183 -0.005 -0.005 -20.184 v -9.779 h 20.184 0.01 20.183 z m 40.732,0 H 0.183 0.178 0.174 -20.01 v -9.779 H 0.174 0.183 20.366 Z m 40.733,0 H 40.915 40.911 40.906 20.723 v -9.779 h 20.183 0.009 20.184 z m 40.732,0 H 81.648 81.643 81.639 61.455 v -9.779 h 20.184 0.009 20.183 z m 40.732,0 h -20.183 -0.004 -0.005 -20.183 v -9.779 h 20.183 0.009 20.183 z m 40.733,0 h -20.183 -0.005 -0.004 -20.184 v -9.779 h 20.184 0.009 20.183 z m 40.733,0 h -20.184 -0.004 -0.006 -20.183 v -9.779 h 20.183 0.01 20.184 z m 40.732,0 h -20.183 -0.004 -0.004 -20.186 v -9.779 h 20.186 0.008 20.183 z m 40.733,0 H 285.31 285.306 285.3 265.119 v -9.779 h 20.181 0.01 20.184 z m 40.732,0 h -20.184 -0.003 -0.004 -20.186 v -9.779 h 20.186 0.007 20.184 z m 40.732,0 h -20.183 -0.004 -0.004 -20.185 v -9.779 h 20.185 0.008 20.183 z M 0,-362.763 h -20.184 -0.004 -0.005 -20.183 v -9.779 h 20.183 0.009 H 0 Z m 40.732,0 H 20.549 20.544 20.54 0.356 v -9.779 h 20.184 0.009 20.183 z m 40.733,0 H 61.282 61.277 61.272 41.089 v -9.779 h 20.183 0.01 20.183 z m 40.733,0 h -20.184 -0.005 -0.004 -20.184 v -9.779 h 20.184 0.009 20.184 z m 40.732,0 h -20.183 -0.005 -0.005 -20.183 v -9.779 h 20.183 0.01 20.183 z m 40.733,0 h -20.183 -0.006 -0.004 -20.183 v -9.779 h 20.183 0.01 20.183 z m 40.731,0 h -20.183 -0.004 -0.005 -20.184 v -9.779 h 20.184 0.009 20.183 z m 40.732,0 h -20.183 -0.004 -0.004 -20.184 v -9.779 h 20.184 0.008 20.183 z m 40.735,0 h -20.184 -0.006 -0.004 -20.183 v -9.779 h 20.183 0.01 20.184 z m 40.732,0 H 346.41 346.406 346.4 326.216 v -9.779 h 20.184 0.01 20.183 z M -20.366,-372.84 h -20.183 -0.005 -0.005 -20.184 v -9.779 h 20.184 0.01 20.183 z m 40.732,0 H 0.183 0.178 0.174 -20.01 v -9.779 H 0.174 0.183 20.366 Z m 40.733,0 H 40.915 40.911 40.906 20.723 v -9.779 h 20.183 0.009 20.184 z m 40.732,0 H 81.648 81.643 81.639 61.455 v -9.779 h 20.184 0.009 20.183 z m 40.732,0 h -20.183 -0.004 -0.005 -20.183 v -9.779 h 20.183 0.009 20.183 z m 40.733,0 h -20.183 -0.005 -0.004 -20.184 v -9.779 h 20.184 0.009 20.183 z m 40.733,0 h -20.184 -0.004 -0.006 -20.183 v -9.779 h 20.183 0.01 20.184 z m 40.732,0 h -20.183 -0.004 -0.004 -20.186 v -9.779 h 20.186 0.008 20.183 z m 40.733,0 H 285.31 285.306 285.3 265.119 v -9.779 h 20.181 0.01 20.184 z m 40.732,0 h -20.184 -0.003 -0.004 -20.186 v -9.779 h 20.186 0.007 20.184 z m 40.732,0 h -20.183 -0.004 -0.004 -20.185 v -9.779 h 20.185 0.008 20.183 z m -20.009,-15.652 h -0.356 v 5.576 H 346.41 346.406 346.4 326.216 v -5.576 h -0.355 v 5.576 h -20.184 -0.006 -0.004 -20.183 v -5.576 h -0.358 v 5.576 h -20.183 -0.004 -0.004 -20.184 v -5.576 h -0.357 v 5.576 h -20.183 -0.004 -0.005 -20.184 v -5.576 h -0.355 v 5.576 h -20.183 -0.006 -0.004 -20.183 v -5.576 h -0.357 v 5.576 h -20.183 -0.005 -0.005 -20.183 v -5.576 h -0.356 v 5.576 h -20.184 -0.005 -0.004 -20.184 v -5.576 h -0.356 v 5.576 H 61.282 61.277 61.272 41.089 v -5.576 h -0.357 v 5.576 H 20.549 20.544 20.54 0.356 v -5.576 H 0 v 5.576 h -20.184 -0.004 -0.005 -20.183 v -5.576 h -0.356 v 5.576 h -20.184 -0.004 -0.005 -12.13 v 0.297 h 11.956 v 9.779 h -11.956 v 0.298 h 12.13 0.009 20.184 v 9.779 h -20.184 -0.004 -0.005 -12.13 v 0.297 h 11.956 v 9.779 h -11.956 v 0.298 h 12.13 0.009 20.184 v 9.78 h -20.184 -0.004 -0.005 -12.13 v 0.297 h 11.956 v 9.78 h -11.956 v 0.297 h 12.13 0.009 20.184 v 9.779 h -20.184 -0.004 -0.005 -12.13 v 0.298 h 11.956 v 9.779 h -11.956 v 0.298 h 12.13 0.009 20.184 v 9.779 h -20.184 -0.004 -0.005 -12.13 v 0.297 h 11.956 v 9.779 h -11.956 v 0.297 h 12.13 0.009 20.184 v 9.78 h -20.184 -0.004 -0.005 -12.13 v 0.297 h 11.956 v 9.78 h -11.956 v 0.298 h 12.13 0.009 20.184 v 9.779 h -20.184 -0.004 -0.005 -12.13 v 0.297 h 11.956 v 9.779 h -11.956 v 0.298 h 12.13 0.009 20.184 v 9.779 h -20.184 -0.004 -0.005 -12.13 v 0.298 h 11.956 v 9.779 h -11.956 v 0.297 h 12.13 0.009 20.184 v 9.78 h -20.184 -0.004 -0.005 -12.13 v 0.297 h 11.956 v 9.78 h -11.956 v 0.297 h 12.13 0.009 20.184 v 9.779 h -20.184 -0.004 -0.005 -12.13 v 0.298 h 11.956 v 9.779 h -11.956 v 0.298 h 12.13 0.009 20.184 v 9.779 h -20.184 -0.004 -0.005 -12.13 v 0.297 h 11.956 v 9.779 h -11.956 v 0.298 h 12.13 0.009 20.184 v 9.779 h -20.184 -0.004 -0.005 -12.13 v 0.298 h 11.956 v 9.779 h -11.956 v 0.297 h 12.13 0.009 20.184 v 9.78 h -20.184 -0.004 -0.005 -12.13 v 0.298 h 11.956 v 9.779 h -11.956 v 0.297 h 12.13 0.009 20.184 v 9.779 h -20.184 -0.004 -0.005 -12.13 v 0.298 h 11.956 v 9.779 h -11.956 v 0.297 h 12.13 0.009 20.184 v 9.779 h -20.184 -0.004 -0.005 -12.13 v 0.298 h 11.956 v 9.78 h -11.956 v 0.297 h 12.13 0.009 20.184 v 9.78 h -20.184 -0.004 -0.005 -12.13 v 0.297 h 11.956 v 9.779 h -11.956 v 0.298 h 12.13 0.009 20.184 v 9.779 h -20.184 -0.004 -0.005 -12.13 v 0.297 h 11.956 v 9.779 h -11.956 v 0.298 h 12.13 0.009 20.184 v 9.779 h -20.184 -0.004 -0.005 -12.13 v 0.298 h 11.956 v 9.78 h -11.956 v 0.296 h 12.13 0.009 20.184 v 9.78 h -20.184 -0.004 -0.005 -12.13 v 0.298 h 11.956 v 9.779 h -11.956 v 0.298 h 12.13 0.009 20.184 V 0 h -20.184 -0.004 -0.005 -12.13 v 0.298 h 11.956 v 5.576 h 0.356 V 0.298 h 20.184 0.01 20.183 v 5.576 h 0.356 V 0.298 H 0.174 0.183 20.366 v 5.576 h 0.357 V 0.298 h 20.183 0.009 20.184 v 5.576 h 0.356 V 0.298 h 20.184 0.009 20.183 v 5.576 h 0.357 V 0.298 h 20.183 0.009 20.183 v 5.576 h 0.357 V 0.298 h 20.184 0.009 20.183 v 5.576 h 0.356 V 0.298 h 20.183 0.01 20.184 v 5.576 h 0.355 V 0.298 h 20.186 0.008 20.183 v 5.576 h 0.358 V 0.298 h 20.181 0.01 20.184 v 5.576 h 0.355 V 0.298 h 20.186 0.007 20.184 v 5.576 h 0.356 V 0.298 h 20.185 0.008 20.183 v 5.576 h 0.358 V 0.298 h 11.955 V 0 h -12.129 -0.006 -0.004 -20.183 v -9.778 h 20.183 0.01 12.129 v -0.298 h -11.955 v -9.779 h 11.955 v -0.298 h -12.129 -0.006 -0.004 -20.183 v -9.78 h 20.183 0.01 12.129 v -0.296 h -11.955 v -9.78 h 11.955 v -0.298 h -12.129 -0.006 -0.004 -20.183 v -9.779 h 20.183 0.01 12.129 v -0.298 h -11.955 v -9.779 h 11.955 v -0.297 h -12.129 -0.006 -0.004 -20.183 v -9.779 h 20.183 0.01 12.129 v -0.298 h -11.955 v -9.779 h 11.955 v -0.297 h -12.129 -0.006 -0.004 -20.183 v -9.78 h 20.183 0.01 12.129 v -0.297 h -11.955 v -9.78 h 11.955 v -0.298 h -12.129 -0.006 -0.004 -20.183 v -9.779 h 20.183 0.01 12.129 v -0.297 h -11.955 v -9.779 h 11.955 v -0.298 h -12.129 -0.006 -0.004 -20.183 v -9.779 h 20.183 0.01 12.129 v -0.297 h -11.955 v -9.779 h 11.955 v -0.298 h -12.129 -0.006 -0.004 -20.183 v -9.78 h 20.183 0.01 12.129 v -0.297 h -11.955 v -9.779 h 11.955 v -0.298 h -12.129 -0.006 -0.004 -20.183 v -9.779 h 20.183 0.01 12.129 v -0.298 h -11.955 v -9.779 h 11.955 v -0.297 h -12.129 -0.006 -0.004 -20.183 v -9.779 h 20.183 0.01 12.129 v -0.298 h -11.955 v -9.779 h 11.955 v -0.298 h -12.129 -0.006 -0.004 -20.183 v -9.779 h 20.183 0.01 12.129 v -0.297 h -11.955 v -9.78 h 11.955 v -0.297 h -12.129 -0.006 -0.004 -20.183 v -9.78 h 20.183 0.01 12.129 v -0.297 h -11.955 v -9.779 h 11.955 v -0.298 h -12.129 -0.006 -0.004 -20.183 v -9.779 h 20.183 0.01 12.129 v -0.298 h -11.955 v -9.779 h 11.955 v -0.297 h -12.129 -0.006 -0.004 -20.183 v -9.779 h 20.183 0.01 12.129 v -0.298 h -11.955 v -9.78 h 11.955 v -0.297 h -12.129 -0.006 -0.004 -20.183 v -9.78 h 20.183 0.01 12.129 v -0.297 h -11.955 v -9.779 h 11.955 v -0.297 h -12.129 -0.006 -0.004 -20.183 v -9.779 h 20.183 0.01 12.129 v -0.298 h -11.955 v -9.779 h 11.955 v -0.298 h -12.129 -0.006 -0.004 -20.183 v -9.779 h 20.183 0.01 12.129 v -0.297 h -11.955 v -9.78 h 11.955 v -0.297 h -12.129 -0.006 -0.004 -20.183 v -9.78 h 20.183 0.01 12.129 v -0.298 h -11.955 v -9.779 h 11.955 v -0.297 h -12.129 -0.006 -0.004 -20.183 v -9.779 h 20.183 0.01 12.129 v -0.298 h -11.955 v -9.779 h 11.955 v -0.297 h -12.129 -0.006 -0.004 -20.183 z" /></g><g
           transform="translate(52.3062,279.1963)"
           id="g38"><path
             id="path40"
             style="fill:#ffffff;fill-opacity:1;fill-rule:evenodd;stroke:none"
             d="m 0,0 c -8.961,-8.432 -23.062,-8.002 -31.494,0.959 -8.431,8.962 -8.002,23.062 0.96,31.494 20.604,19.306 39.445,11.683 72.867,-1.84 17.097,-6.917 39.463,-15.967 68.67,-23.256 33.742,-8.421 65.367,-7.325 96.289,0.082 31.988,7.662 63.774,22.146 96.536,39.973 78.422,42.671 150.382,9.333 150.591,9.238 11.227,-5.059 16.227,-18.261 11.166,-29.488 C 460.527,15.936 447.326,10.937 436.099,15.995 435.947,16.064 383.783,40.251 325.113,8.327 289.33,-11.145 254.144,-27.076 217.587,-35.833 179.963,-44.845 141.465,-46.173 100.359,-35.915 67.595,-27.737 43.784,-18.103 25.583,-10.739 9.039,-4.045 0.289,0.27 0,0" /></g><g
           transform="translate(85.333,181.1182)"
           id="g42"><path
             id="path44"
             style="fill:#ffffff;fill-opacity:1;fill-rule:evenodd;stroke:none"
             d="m 0,0 c -1.725,0 -3.378,-0.311 -4.906,-0.879 -0.691,0.762 -1.687,1.239 -2.796,1.239 -0.516,0 -1.008,-0.103 -1.457,-0.291 -0.247,3.25 -2.963,5.811 -6.277,5.811 -1.439,0 -2.765,-0.484 -3.825,-1.295 -0.678,0.934 -1.779,1.541 -3.022,1.541 -0.207,0 -0.411,-0.018 -0.609,-0.05 0.42,0.981 0.653,2.061 0.653,3.195 0,4.487 -3.638,8.125 -8.126,8.125 -0.835,0 -1.641,-0.126 -2.401,-0.361 -0.588,1.256 -1.863,2.125 -3.342,2.125 l -0.107,-0.001 c 0.017,0.292 0.027,0.587 0.027,0.885 0,8.063 -6.537,14.601 -14.602,14.601 -8.064,0 -14.601,-6.538 -14.601,-14.601 0,-0.113 0.001,-0.226 0.004,-0.338 -0.705,0.178 -1.443,0.273 -2.203,0.273 -1.511,0 -2.934,-0.375 -4.182,-1.035 -2.129,2.904 -5.563,4.789 -9.44,4.789 -6.46,0 -11.697,-5.236 -11.697,-11.696 0,-1.269 0.204,-2.493 0.578,-3.637 -0.117,0.007 -0.234,0.011 -0.353,0.011 -3.182,0 -5.76,-2.579 -5.76,-5.761 0,-0.373 0.036,-0.739 0.104,-1.091 -0.04,0 -0.08,0.002 -0.12,0.002 -1.798,0 -3.262,-1.427 -3.321,-3.211 -0.499,0.094 -1.014,0.145 -1.54,0.145 -2.077,0 -4.02,-0.724 -5.419,-2.046 -3.741,-3.538 0.344,-4.458 4.28,-4.458 h 5.133 4.03 82.586 6.446 10.591 c 4.103,0 9.965,-0.672 5.892,3.619 C 7.652,-1.686 4.022,0 0,0" /></g><g
           transform="translate(20.5112,233.6387)"
           id="g46"><path
             id="path48"
             style="fill:#ffffff;fill-opacity:1;fill-rule:evenodd;stroke:none"
             d="m 0,0 c -2.361,-1.964 -5.866,-1.641 -7.83,0.721 -1.963,2.36 -1.641,5.865 0.72,7.829 10.772,8.944 32.613,18.302 64.136,19.034 22.5,0.522 50.095,-3.297 82.304,-14.775 36.538,-13.021 70.752,-15.495 104.184,-11.056 33.652,4.467 66.671,15.95 100.527,30.757 71.097,31.094 135.529,-5.649 135.718,-5.753 2.686,-1.494 3.653,-4.882 2.158,-7.568 -1.494,-2.686 -4.882,-3.652 -7.568,-2.159 -0.174,0.097 -59.865,34.136 -125.859,5.273 C 313.8,7.13 279.847,-4.651 244.955,-9.283 209.841,-13.944 173.932,-11.355 135.622,2.296 104.767,13.291 78.525,16.955 57.244,16.46 28.623,15.795 9.291,7.713 0,0" /></g><g
           transform="translate(268.584,365.1226)"
           id="g50"><path
             id="path52"
             style="fill:#ffffff;fill-opacity:1;fill-rule:evenodd;stroke:none"
             d="m 0,0 c 2.284,0 4.472,-0.412 6.493,-1.163 0.914,1.007 2.233,1.639 3.7,1.639 0.683,0 1.335,-0.138 1.927,-0.386 0.328,4.303 3.922,7.691 8.309,7.691 1.904,0 3.658,-0.639 5.061,-1.714 0.898,1.235 2.355,2.038 3.999,2.038 0.275,0 0.545,-0.022 0.807,-0.065 -0.556,1.297 -0.863,2.727 -0.863,4.228 0,5.939 4.813,10.752 10.752,10.752 1.106,0 2.172,-0.166 3.177,-0.477 0.78,1.662 2.467,2.813 4.424,2.813 l 0.142,-0.002 c -0.023,0.387 -0.036,0.777 -0.036,1.17 0,10.673 8.652,19.324 19.324,19.324 10.672,0 19.322,-8.651 19.322,-19.324 0,-0.149 -0.002,-0.298 -0.006,-0.446 0.934,0.236 1.91,0.361 2.918,0.361 2,0 3.881,-0.495 5.533,-1.369 2.819,3.842 7.364,6.338 12.493,6.338 8.55,0 15.48,-6.93 15.48,-15.479 0,-1.681 -0.269,-3.299 -0.766,-4.814 0.157,0.009 0.311,0.014 0.469,0.014 4.211,0 7.623,-3.412 7.623,-7.622 0,-0.495 -0.049,-0.978 -0.138,-1.446 0.052,0.002 0.107,0.003 0.16,0.003 2.379,0 4.316,-1.889 4.394,-4.249 0.66,0.126 1.34,0.192 2.037,0.192 2.75,0 5.321,-0.956 7.172,-2.707 4.951,-4.683 -0.455,-5.901 -5.664,-5.901 H 131.45 126.118 16.821 8.29 -5.726 c -5.428,0 -13.185,-0.889 -7.796,4.789 C -10.127,-2.232 -5.323,0 0,0" /></g></g></g><g
       id="g54"><g
         clip-path="url(#clipPath60)"
         id="g56"><g
           transform="translate(80.6357,96.3574)"
           id="g62"><path
             id="path64"
             style="fill:#e8bac8;fill-opacity:1;fill-rule:evenodd;stroke:none"
             d="M 0,0 C -37.997,15.289 -54.572,44.445 -55.319,75.992 H 394.004 C 393.141,54.563 383.373,31.93 359.551,9.098 L 269.529,-4.812 H 58.961 Z" /></g><g
           transform="translate(427.0908,61.8369)"
           id="g66"><path
             id="path68"
             style="fill:#1d3f4d;fill-opacity:1;fill-rule:evenodd;stroke:none"
             d="m 0,0 c -4.539,0 -8.252,3.714 -8.252,8.25 v 0.123 c 0,4.538 3.713,8.251 8.252,8.251 4.537,0 8.25,-3.712 8.25,-8.251 V 8.25 C 8.25,3.713 4.537,0 0,0 M 36.518,42.513 H -390.7 c -4.389,0 -7.981,-3.592 -7.981,-7.982 0,-4.39 3.592,-7.982 7.981,-7.982 h 38.09 c 4.504,0 8.188,-3.685 8.188,-8.189 0,-4.503 -3.684,-8.187 -8.188,-8.187 h -15.7 c -2.797,0 -5.086,-2.289 -5.086,-5.087 0,-2.797 2.289,-5.086 5.086,-5.086 h 344.923 c 4.573,0 8.313,3.74 8.313,8.312 0,4.572 -3.74,8.312 -8.313,8.312 h -37.998 c -2.728,0 -4.961,2.233 -4.961,4.962 v 0.001 c 0,2.728 2.233,4.962 4.961,4.962 h 97.903 c 4.39,0 7.982,3.592 7.982,7.982 0,4.39 -3.594,7.982 -7.982,7.982" /></g><g
           transform="translate(390.6494,233.8047)"
           id="g70"><path
             id="path72"
             style="fill:#638c9a;fill-opacity:1;fill-rule:evenodd;stroke:none"
             d="M 0,0 C 12.131,12.351 21.154,-3.338 19.895,-19.086 18.701,-34.018 5.83,-85.249 8.215,-106.802 H 3.287 C -8.768,-79.163 -15.527,-15.812 0,0" /></g><g
           transform="translate(395.749,127.0029)"
           id="g74"><path
             id="path76"
             style="fill:#92b8c9;fill-opacity:1;fill-rule:evenodd;stroke:none"
             d="m 0,0 c -11.734,43.563 3.121,103.776 3.17,103.981 0.092,0.373 0.469,0.604 0.842,0.513 0.373,-0.091 0.603,-0.468 0.513,-0.842 C 4.475,103.447 -10.398,43.164 1.426,0 Z" /></g><g
           transform="translate(420.5752,206.5859)"
           id="g78"><path
             id="path80"
             style="fill:#1d3f4d;fill-opacity:1;fill-rule:evenodd;stroke:none"
             d="M 0,0 C 12.783,6.772 16.006,-8.005 11.023,-20.229 6.893,-30.361 -11.352,-60.328 -18.25,-79.583 h -6.498 C -25.299,-52.975 -15.088,-7.994 0,0" /></g><g
           transform="translate(398.2002,127.0029)"
           id="g82"><path
             id="path84"
             style="fill:#7ba7b5;fill-opacity:1;fill-rule:evenodd;stroke:none"
             d="m 0,0 c 4.23,35.988 28.162,75.105 28.25,75.247 0.166,0.274 0.523,0.362 0.799,0.195 0.275,-0.166 0.361,-0.525 0.195,-0.799 C 29.16,74.502 5.379,35.637 1.156,0 Z" /></g><g
           transform="translate(366.5498,189.5059)"
           id="g86"><path
             id="path88"
             style="fill:#7ba7b5;fill-opacity:1;fill-rule:evenodd;stroke:none"
             d="m 0,0 c -12.389,5.411 -14.352,-8.586 -8.848,-19.628 3.725,-7.471 17.145,-26.601 26.182,-42.875 H 27.65 C 24.123,-37.884 12.807,-5.595 0,0" /></g><g
           transform="translate(390.5166,127.0029)"
           id="g90"><path
             id="path92"
             style="fill:#1d3f4d;fill-opacity:1;fill-rule:evenodd;stroke:none"
             d="m 0,0 c -8.797,29.826 -29.055,57.935 -29.135,58.049 -0.174,0.244 -0.513,0.301 -0.76,0.126 -0.244,-0.176 -0.3,-0.516 -0.125,-0.76 C -29.939,57.303 -9.896,29.487 -1.121,0 Z" /></g><g
           transform="translate(410.0732,136.8496)"
           id="g94"><path
             id="path96"
             style="fill:#b62351;fill-opacity:1;fill-rule:evenodd;stroke:none"
             d="m 0,0 h -36.299 c -1.086,0 -1.974,-0.887 -1.974,-1.974 v -8.961 c 0,-1.086 0.888,-1.974 1.974,-1.974 H 0 c 1.086,0 1.973,0.888 1.973,1.974 v 8.961 C 1.973,-0.887 1.086,0 0,0" /></g><g
           transform="translate(403.8467,129.5596)"
           id="g98"><path
             id="path100"
             style="fill:#b62351;fill-opacity:1;fill-rule:evenodd;stroke:none"
             d="m 0,0 h -23.846 l -6.226,-5.618 5.086,-19.592 h 13.064 13.063 l 5.086,19.592 z" /></g><g
           transform="translate(373.7744,123.9414)"
           id="g102"><path
             id="path104"
             style="fill:#97234e;fill-opacity:1;fill-rule:evenodd;stroke:none"
             d="M 0,0 1.045,-4.027 33.533,-10.647 36.299,0 Z" /></g><g
           transform="translate(104.8716,247.8857)"
           id="g106"><path
             id="path108"
             style="fill:#d6725f;fill-opacity:1;fill-rule:evenodd;stroke:none"
             d="m 0,0 -8.307,9.007 c 0,0 -1.111,0.989 -1.819,-0.037 -0.708,-1.025 0.564,-3.039 1.131,-4.082 0.567,-1.043 4.34,-8.391 4.34,-8.391 l 5.254,0.698 z" /></g><g
           transform="translate(102.5684,248.1162)"
           id="g110"><path
             id="path112"
             style="fill:#d6725f;fill-opacity:1;fill-rule:evenodd;stroke:none"
             d="m 0,0 -11.477,7.338 c 0,0 -1.473,0.749 -1.944,-0.554 -0.471,-1.303 1.465,-3.108 2.369,-4.07 0.905,-0.96 7.037,-7.795 7.037,-7.795 l 5.452,2.234 z" /></g><g
           transform="translate(394.1738,247.8857)"
           id="g114"><path
             id="path116"
             style="fill:#d6725f;fill-opacity:1;fill-rule:evenodd;stroke:none"
             d="m 0,0 8.308,9.007 c 0,0 1.109,0.989 1.817,-0.037 C 10.833,7.945 9.561,5.931 8.995,4.888 8.428,3.845 4.654,-3.503 4.654,-3.503 l -5.255,0.698 z" /></g><g
           transform="translate(396.4785,248.1162)"
           id="g118"><path
             id="path120"
             style="fill:#d6725f;fill-opacity:1;fill-rule:evenodd;stroke:none"
             d="m 0,0 11.474,7.338 c 0,0 1.475,0.749 1.945,-0.554 C 13.892,5.481 11.955,3.676 11.052,2.714 10.147,1.754 4.015,-5.081 4.015,-5.081 l -5.452,2.234 z" /></g><g
           transform="translate(233.8301,393.6685)"
           id="g122"><path
             id="path124"
             style="fill:#30295e;fill-opacity:1;fill-rule:evenodd;stroke:none"
             d="m 0,0 c 30.052,36.522 69.761,-4.726 48.634,-52.383 -1.969,-3.721 48.832,-53.719 -3.754,-81.799 -27.007,-14.423 -67.019,14.16 -67.019,14.16 -26.34,39.366 7.688,62.065 7.355,67.5 -0.404,6.582 -2.504,12.716 -6.637,22.439 C -28.253,-14.016 -15.884,4.453 0,0" /></g><g
           transform="translate(211.2432,243.0586)"
           id="g126"><path
             id="path128"
             style="fill:#e6ad83;fill-opacity:1;fill-rule:evenodd;stroke:none"
             d="m 0,0 c 0,0 -36.256,-49.645 -43.051,-48.126 -6.795,1.518 -78.583,52.523 -80.234,53.759 -1.652,1.239 -1.014,3.407 0.734,3.275 1.748,-0.132 10.963,-5.22 11.559,-5.621 0.596,-0.401 0.638,0.216 0.638,0.216 -1.772,8.193 5.662,10.168 7.621,10.294 1.96,0.125 3.443,-0.735 3.432,-1.766 -0.012,-1.028 -1.504,-1.448 -1.504,-1.448 -4.593,-0.483 -5.686,-4.416 -3.894,-7.022 1.791,-2.606 5.676,-3.948 8.611,-1.385 2.935,2.56 0.738,5.96 -0.157,6.958 -0.895,0.998 -1.804,2.051 -0.838,3.019 0.966,0.968 1.993,0.087 1.993,0.087 9.318,-6.457 4.685,-13.868 4.685,-13.868 0,0 -0.952,-2.601 1.28,-4.081 2.232,-1.478 39.806,-19.824 42.376,-20.052 1.92,-0.169 20.342,36.326 31.093,58.243 5.229,10.659 12.658,23.059 22.954,26.323 0,0 8.692,-18.39 -7.298,-58.805" /></g><g
           transform="translate(288.7578,243.0586)"
           id="g130"><path
             id="path132"
             style="fill:#e6ad83;fill-opacity:1;fill-rule:evenodd;stroke:none"
             d="m 0,0 c 0,0 36.255,-49.645 43.051,-48.126 6.794,1.518 78.581,52.523 80.233,53.759 1.652,1.239 1.014,3.407 -0.735,3.275 -1.748,-0.132 -10.962,-5.22 -11.557,-5.621 -0.596,-0.401 -0.64,0.216 -0.64,0.216 1.772,8.193 -5.662,10.168 -7.621,10.294 -1.958,0.125 -3.444,-0.735 -3.431,-1.766 0.01,-1.028 1.504,-1.448 1.504,-1.448 4.594,-0.483 5.686,-4.416 3.896,-7.022 -1.793,-2.606 -5.679,-3.948 -8.611,-1.385 -2.936,2.56 -0.741,5.96 0.155,6.958 0.894,0.998 1.805,2.051 0.836,3.019 -0.964,0.968 -1.991,0.087 -1.991,0.087 -9.319,-6.457 -4.685,-13.868 -4.685,-13.868 0,0 0.951,-2.601 -1.28,-4.081 C 86.892,-7.187 49.317,-25.533 46.749,-25.761 44.828,-25.93 26.404,10.565 15.656,32.482 10.427,43.141 3.079,55.699 -7.218,58.963 -7.218,58.963 -15.99,40.415 0,0" /></g><g
           transform="translate(303.709,162.459)"
           id="g134"><path
             id="path136"
             style="fill:#b62351;fill-opacity:1;fill-rule:evenodd;stroke:none"
             d="m 0,0 60.125,-3.369 c 0,0 -4.825,-17.808 -5.511,-19.774 -0.685,-1.965 -108.238,-33.064 -108.238,-33.064 0,0 -107.554,31.099 -108.24,33.064 -0.686,1.966 -5.511,19.774 -5.511,19.774 L -107.25,0 Z" /></g><g
           transform="translate(302.5088,105.002)"
           id="g138"><path
             id="path140"
             style="fill:#b62351;fill-opacity:1;fill-rule:evenodd;stroke:none"
             d="m 0,0 c 0,0 3.149,3.466 5.257,3.701 2.11,0.236 33.99,-9.491 38.326,-10.898 8.063,-2.615 10.732,-25.621 -8.323,-23.206 -8.321,1.055 -29.533,3.986 -33.166,4.923 -3.636,0.937 -4.768,6.729 -4.768,6.729 z" /></g><g
           transform="translate(262.5215,305.6475)"
           id="g142"><path
             id="path144"
             style="fill:#cf5392;fill-opacity:1;fill-rule:evenodd;stroke:none"
             d="m 0,0 18.857,-3.44 3.681,-27.814 c 0,0 4.455,-13.596 4.924,-18.401 0.469,-4.805 -5.278,-16.875 -7.153,-21.797 -1.875,-4.923 -1.873,-32.113 -1.64,-33.988 0.233,-1.875 12.947,-37.748 12.947,-37.748 0,0 -9.226,-9.484 -44.053,-9.484 -34.826,0 -44.052,9.484 -44.052,9.484 0,0 12.712,35.873 12.946,37.748 0.233,1.875 0.235,29.065 -1.641,33.988 -1.875,4.922 -7.621,16.992 -7.152,21.797 0.469,4.805 4.923,18.401 4.923,18.401 l 3.682,27.814 18.858,3.44 12.436,-12.148 z" /></g><g
           transform="translate(148.0435,157.2695)"
           id="g146"><path
             id="path148"
             style="fill:#e6ad83;fill-opacity:1;fill-rule:evenodd;stroke:none"
             d="m 0,0 c 0,0 154.61,-52.126 158.485,-53.68 3.363,-1.352 6.524,-19.101 -6.693,-17.34 -5.544,0.74 -143.24,25.875 -156.49,29.012 C -35.54,-34.705 -33.99,11.817 0,0" /></g><g
           transform="translate(264.4648,117.9443)"
           id="g150"><path
             id="path152"
             style="fill:#d6725f;fill-opacity:1;fill-rule:evenodd;stroke:none"
             d="m 0,0 c 23.11,-7.829 40.785,-13.843 42.063,-14.354 2.066,-0.831 4.052,-7.836 2.222,-12.717 -1.218,-1.327 -2.704,-2.799 -4.338,-4.33 -1.243,-0.406 -2.755,-0.536 -4.577,-0.292 -2.496,0.331 -31.758,5.606 -64.394,11.591 z" /></g><g
           transform="translate(294.1396,107.8682)"
           id="g154"><path
             id="path156"
             style="fill:#ffffff;fill-opacity:1;fill-rule:evenodd;stroke:none"
             d="m 0,0 c -0.28,-4.618 -1.324,-12.664 -5.055,-19.759 6.028,-1.072 9.909,-1.748 10.75,-1.858 13.218,-1.763 10.057,15.986 6.694,17.339 C 11.764,-4.028 7.204,-2.457 0,0" /></g><g
           transform="translate(294.1396,107.8682)"
           id="g158"><path
             id="path160"
             style="fill:#dedae3;fill-opacity:1;fill-rule:evenodd;stroke:none"
             d="m 0,0 c -0.28,-4.618 -1.324,-12.664 -5.055,-19.759 l 4.946,-0.875 c 4.482,7.029 5.01,14.871 4.918,18.99 z" /></g><g
           transform="translate(311.71,101.333)"
           id="g162"><path
             id="path164"
             style="fill:#ffffff;fill-opacity:1;fill-rule:evenodd;stroke:none"
             d="M 0,0 C -0.058,0.216 0.068,0.438 0.281,0.497 0.497,0.556 0.719,0.431 0.778,0.216 l 2.615,-9.41 4.026,5.034 -0.673,2.42 c -0.058,0.215 0.068,0.438 0.281,0.496 0.216,0.058 0.44,-0.066 0.497,-0.281 l 0.518,-1.86 0.61,0.763 c 0.138,0.174 0.393,0.201 0.568,0.063 0.172,-0.138 0.199,-0.393 0.06,-0.566 l -0.971,-1.217 1.724,-6.212 4.028,5.032 -0.567,2.042 c -0.059,0.214 0.067,0.437 0.279,0.497 0.217,0.057 0.44,-0.068 0.498,-0.283 l 0.412,-1.479 0.856,1.07 c 0.138,0.173 0.394,0.201 0.567,0.062 0.173,-0.138 0.202,-0.392 0.063,-0.565 l -1.222,-1.525 1.726,-6.21 4.028,5.031 -0.462,1.66 c -0.058,0.215 0.068,0.439 0.282,0.497 0.215,0.058 0.438,-0.067 0.497,-0.282 l 0.305,-1.098 1.104,1.378 c 0.136,0.172 0.393,0.2 0.566,0.062 0.173,-0.139 0.201,-0.394 0.063,-0.566 l -1.467,-1.831 1.725,-6.212 4.509,5.629 c 0.139,0.175 0.392,0.203 0.566,0.064 0.175,-0.139 0.203,-0.394 0.062,-0.566 l -4.87,-6.086 1.539,-5.541 c 0.058,-0.215 -0.068,-0.437 -0.281,-0.497 -0.217,-0.058 -0.44,0.069 -0.497,0.282 l -1.384,4.98 -2.594,-3.24 c -0.136,-0.174 -0.391,-0.201 -0.566,-0.063 -0.173,0.138 -0.2,0.394 -0.062,0.566 l 2.955,3.693 -1.724,6.213 -4.029,-5.031 1.435,-5.162 c 0.059,-0.215 -0.067,-0.439 -0.282,-0.496 -0.215,-0.059 -0.438,0.066 -0.496,0.281 l -1.278,4.601 -2.839,-3.549 c -0.138,-0.172 -0.395,-0.2 -0.568,-0.062 -0.173,0.137 -0.201,0.394 -0.062,0.566 l 3.203,4.002 -1.725,6.21 -4.027,-5.032 1.328,-4.781 c 0.058,-0.215 -0.067,-0.438 -0.282,-0.496 -0.215,-0.06 -0.439,0.066 -0.496,0.281 l -1.172,4.219 -3.086,-3.854 c -0.14,-0.173 -0.395,-0.201 -0.567,-0.063 -0.173,0.139 -0.202,0.393 -0.063,0.566 l 3.449,4.31 -1.724,6.212 -4.03,-5.033 1.223,-4.401 c 0.059,-0.215 -0.066,-0.438 -0.281,-0.498 -0.214,-0.057 -0.438,0.069 -0.496,0.283 l -1.066,3.839 -3.332,-4.163 c -0.138,-0.173 -0.394,-0.201 -0.567,-0.062 -0.173,0.137 -0.199,0.392 -0.063,0.566 l 3.696,4.616 z" /></g><g
           transform="translate(342.2402,97.5996)"
           id="g166"><path
             id="path168"
             style="fill:#ffffff;fill-opacity:1;fill-rule:evenodd;stroke:none"
             d="m 0,0 c 7.235,-2.348 9.631,-22.994 -7.47,-20.828 -7.467,0.947 -26.505,3.577 -29.764,4.418 -2.312,0.597 -3.496,3.382 -3.992,4.952 -0.376,0.019 -0.77,0.056 -1.179,0.109 0,0 1.132,-5.792 4.767,-6.729 3.633,-0.937 24.846,-3.867 33.166,-4.923 19.056,-2.415 16.387,20.592 8.324,23.206 -4.336,1.407 -36.216,11.134 -38.327,10.899 -2.107,-0.236 -5.256,-3.702 -5.256,-3.702 0.412,-0.141 0.795,-0.273 1.148,-0.396 0.909,0.902 2.798,2.617 4.187,2.771 C -32.502,9.989 -3.892,1.26 0,0" /></g><g
           transform="translate(197.6582,105.002)"
           id="g170"><path
             id="path172"
             style="fill:#b62351;fill-opacity:1;fill-rule:evenodd;stroke:none"
             d="m 0,0 c 0,0 -3.149,3.466 -5.258,3.701 -2.109,0.236 -33.989,-9.491 -38.325,-10.898 -8.063,-2.615 -10.732,-25.621 8.322,-23.206 8.321,1.055 29.534,3.986 33.168,4.923 3.633,0.937 4.767,6.729 4.767,6.729 z" /></g><g
           transform="translate(352.125,157.2695)"
           id="g174"><path
             id="path176"
             style="fill:#e6ad83;fill-opacity:1;fill-rule:evenodd;stroke:none"
             d="m 0,0 c 0,0 -154.611,-52.126 -158.486,-53.68 -3.363,-1.352 -6.525,-19.101 6.694,-17.34 5.543,0.74 143.237,25.875 156.489,29.012 C 35.538,-34.705 33.989,11.817 0,0" /></g><g
           transform="translate(206.0278,107.8682)"
           id="g178"><path
             id="path180"
             style="fill:#ffffff;fill-opacity:1;fill-rule:evenodd;stroke:none"
             d="m 0,0 c 0.281,-4.618 1.326,-12.664 5.054,-19.759 -6.027,-1.072 -9.908,-1.748 -10.749,-1.858 -13.219,-1.763 -10.057,15.986 -6.694,17.339 C -11.763,-4.028 -7.205,-2.457 0,0" /></g><g
           transform="translate(206.0278,107.8682)"
           id="g182"><path
             id="path184"
             style="fill:#dedae3;fill-opacity:1;fill-rule:evenodd;stroke:none"
             d="m 0,0 c 0.281,-4.618 1.326,-12.664 5.054,-19.759 l -4.946,-0.875 c -4.482,7.029 -5.01,14.871 -4.918,18.99 z" /></g><g
           transform="translate(188.4565,101.333)"
           id="g186"><path
             id="path188"
             style="fill:#ffffff;fill-opacity:1;fill-rule:evenodd;stroke:none"
             d="M 0,0 C 0.059,0.216 -0.067,0.438 -0.281,0.497 -0.496,0.556 -0.719,0.431 -0.778,0.216 l -2.613,-9.41 -4.028,5.034 0.673,2.42 c 0.059,0.215 -0.067,0.438 -0.281,0.496 -0.215,0.058 -0.439,-0.066 -0.497,-0.281 l -0.517,-1.86 -0.61,0.763 c -0.139,0.174 -0.393,0.201 -0.566,0.063 -0.174,-0.138 -0.202,-0.393 -0.064,-0.566 l 0.974,-1.217 -1.725,-6.212 -4.028,5.032 0.567,2.042 c 0.059,0.214 -0.067,0.437 -0.281,0.497 -0.215,0.057 -0.438,-0.068 -0.497,-0.283 l -0.411,-1.479 -0.858,1.07 c -0.137,0.173 -0.392,0.201 -0.565,0.062 -0.174,-0.138 -0.201,-0.392 -0.063,-0.565 l 1.221,-1.525 -1.725,-6.21 -4.029,5.031 0.462,1.66 c 0.059,0.215 -0.067,0.439 -0.282,0.497 -0.214,0.058 -0.437,-0.067 -0.496,-0.282 l -0.305,-1.098 -1.104,1.378 c -0.137,0.172 -0.393,0.2 -0.567,0.062 -0.173,-0.139 -0.2,-0.394 -0.062,-0.566 l 1.467,-1.831 -1.725,-6.212 -4.509,5.629 c -0.138,0.175 -0.393,0.203 -0.566,0.064 -0.174,-0.139 -0.202,-0.394 -0.064,-0.566 l 4.873,-6.086 -1.54,-5.541 c -0.058,-0.215 0.067,-0.437 0.282,-0.497 0.215,-0.058 0.438,0.069 0.497,0.282 l 1.382,4.98 2.594,-3.24 c 0.138,-0.174 0.393,-0.201 0.567,-0.063 0.173,0.138 0.2,0.394 0.062,0.566 l -2.956,3.693 1.725,6.213 4.028,-5.031 -1.434,-5.162 c -0.058,-0.215 0.067,-0.439 0.282,-0.496 0.215,-0.059 0.437,0.066 0.496,0.281 l 1.278,4.601 2.84,-3.549 c 0.138,-0.172 0.393,-0.2 0.566,-0.062 0.173,0.137 0.202,0.394 0.063,0.566 l -3.203,4.002 1.724,6.21 4.028,-5.032 -1.328,-4.781 c -0.058,-0.215 0.067,-0.438 0.282,-0.496 0.215,-0.06 0.437,0.066 0.496,0.281 l 1.172,4.219 3.087,-3.854 c 0.138,-0.173 0.393,-0.201 0.566,-0.063 0.173,0.139 0.201,0.393 0.063,0.566 l -3.45,4.31 1.725,6.212 4.028,-5.033 -1.222,-4.401 c -0.059,-0.215 0.067,-0.438 0.281,-0.498 0.215,-0.057 0.438,0.069 0.497,0.283 l 1.066,3.839 3.332,-4.163 c 0.139,-0.173 0.393,-0.201 0.567,-0.062 0.174,0.137 0.2,0.392 0.062,0.566 l -3.696,4.616 z" /></g><g
           transform="translate(157.9277,97.5996)"
           id="g190"><path
             id="path192"
             style="fill:#ffffff;fill-opacity:1;fill-rule:evenodd;stroke:none"
             d="m 0,0 c -7.235,-2.348 -9.63,-22.994 7.469,-20.828 7.467,0.947 26.504,3.577 29.765,4.418 2.311,0.597 3.495,3.382 3.99,4.952 0.379,0.019 0.772,0.056 1.181,0.109 0,0 -1.134,-5.792 -4.768,-6.729 C 34.003,-19.015 12.79,-21.945 4.47,-23.001 -14.584,-25.416 -11.915,-2.409 -3.853,0.205 0.483,1.612 32.363,11.339 34.472,11.104 36.581,10.868 39.73,7.402 39.73,7.402 39.319,7.261 38.936,7.129 38.582,7.006 37.673,7.908 35.784,9.623 34.395,9.777 32.501,9.989 3.893,1.26 0,0" /></g><g
           transform="translate(250.084,122.8125)"
           id="g194"><path
             id="path196"
             style="fill:none;stroke:#d6725f;stroke-width:1.41700006;stroke-linecap:round;stroke-linejoin:round;stroke-miterlimit:2.61299992;stroke-dasharray:none;stroke-opacity:1"
             d="M 0,0 -44.056,-14.944" /></g><g
           transform="translate(249.9668,327.4385)"
           id="g198"><path
             id="path200"
             style="fill:#d6725f;fill-opacity:1;fill-rule:evenodd;stroke:none"
             d="m 0,0 h 0.234 c 6.777,0 12.321,-5.376 12.321,-11.947 v -14.037 c 0,-6.572 -5.544,-11.948 -12.321,-11.948 H 0 c -6.774,0 -12.318,5.376 -12.318,11.948 v 14.037 C -12.318,-5.376 -6.774,0 0,0" /></g><g
           transform="translate(278.5342,352.2148)"
           id="g202"><path
             id="path204"
             style="fill:#d6725f;fill-opacity:1;fill-rule:evenodd;stroke:none"
             d="m 0,0 c 0.209,-0.03 0.412,-0.065 0.612,-0.109 l 0.007,-0.002 c 3.727,-0.807 6.539,-4.101 6.587,-8.077 0.055,-4.621 -3.645,-8.414 -8.267,-8.469 -4.623,-0.055 -8.415,3.647 -8.469,8.267 -0.033,2.686 1.205,5.091 3.153,6.645 -0.231,-2.468 0.141,-5.528 3.291,-5.857 l -0.058,4.826 C -3.167,-0.823 -1.339,0.063 0,0" /></g><g
           transform="translate(221.3037,352.6128)"
           id="g206"><path
             id="path208"
             style="fill:#d6725f;fill-opacity:1;fill-rule:evenodd;stroke:none"
             d="m 0,0 c -0.208,-0.027 -0.412,-0.06 -0.614,-0.1 l -0.007,-0.002 0.001,10e-4 c -3.738,-0.756 -6.596,-4.012 -6.7,-7.986 -0.118,-4.62 3.53,-8.463 8.149,-8.583 4.621,-0.119 8.463,3.529 8.584,8.148 C 9.482,-5.835 8.28,-3.415 6.354,-1.833 6.548,-4.305 6.135,-7.36 2.979,-7.644 l 0.125,4.825 C 3.155,-0.867 1.34,0.044 0,0" /></g><g
           transform="translate(249.8633,310.3076)"
           id="g210"><path
             id="path212"
             style="fill:#e6ad83;fill-opacity:1;fill-rule:evenodd;stroke:none"
             d="m 0,0 c -15.621,0 -28.653,19.276 -28.653,34.496 v 20.215 c 0,15.759 12.894,28.653 28.649,28.653 H 0 c 15.756,0 28.651,-12.894 28.651,-28.653 V 34.922 C 28.651,18.244 17.282,0 0,0" /></g><g
           transform="translate(266.0566,338.4565)"
           id="g214"><path
             id="path216"
             style="fill:#d6725f;fill-opacity:1;fill-rule:evenodd;stroke:none"
             d="m 0,0 c -2.194,-0.041 -3.939,-1.851 -3.898,-4.044 0.04,-2.192 1.851,-3.938 4.044,-3.898 2.194,0.041 3.939,1.852 3.897,4.045 C 4.004,-1.705 2.191,0.041 0,0" /></g><g
           transform="translate(233.1807,337.8242)"
           id="g218"><path
             id="path220"
             style="fill:#d6725f;fill-opacity:1;fill-rule:evenodd;stroke:none"
             d="m 0,0 c -2.192,-0.04 -3.938,-1.852 -3.896,-4.044 0.04,-2.193 1.85,-3.937 4.043,-3.897 C 2.34,-7.9 4.085,-6.09 4.044,-3.896 4.004,-1.704 2.192,0.041 0,0" /></g><g
           transform="translate(241.2012,354.8975)"
           id="g222"><path
             id="path224"
             style="fill:#30295e;fill-opacity:1;fill-rule:evenodd;stroke:none"
             d="m 0,0 c 0.604,-0.273 0.872,-0.986 0.598,-1.589 -0.274,-0.603 -0.986,-0.871 -1.589,-0.598 -0.01,0.005 -3.63,1.718 -7.084,-0.455 -0.564,-0.354 -1.309,-0.184 -1.662,0.379 -0.353,0.562 -0.185,1.307 0.379,1.661 C -4.795,2.268 -0.012,0.005 0,0" /></g><g
           transform="translate(269.5352,354.3633)"
           id="g226"><path
             id="path228"
             style="fill:#30295e;fill-opacity:1;fill-rule:evenodd;stroke:none"
             d="m 0,0 c 0.578,-0.323 0.788,-1.055 0.466,-1.633 -0.322,-0.578 -1.053,-0.789 -1.633,-0.466 -0.009,0.005 -3.477,2.006 -7.098,0.121 -0.589,-0.306 -1.319,-0.077 -1.625,0.513 -0.307,0.589 -0.077,1.319 0.512,1.625 C -4.596,2.65 -0.014,0.005 0,0" /></g><g
           transform="translate(243.543,331.231)"
           id="g230"><path
             id="path232"
             style="fill:#30295e;fill-opacity:1;fill-rule:evenodd;stroke:none"
             d="m 0,0 c -0.037,-4.075 3.235,-7.407 7.31,-7.443 4.074,-0.038 7.405,3.235 7.443,7.309 H 14.74 c 0.008,0.701 -0.561,1.279 -1.261,1.285 L 1.298,1.262 C 0.597,1.268 0.019,0.701 0.012,0 Z" /></g><g
           transform="translate(246.2393,325.4629)"
           id="g234"><path
             id="path236"
             style="fill:#b94440;fill-opacity:1;fill-rule:evenodd;stroke:none"
             d="M 0,0 C 1.255,-1.034 2.86,-1.66 4.613,-1.675 6.046,-1.689 7.384,-1.293 8.521,-0.598 7.969,0.922 6.324,2.069 4.328,2.162 2.426,2.25 0.75,1.352 0,0" /></g><g
           transform="translate(256.6094,332.3853)"
           id="g238"><path
             id="path240"
             style="fill:#ffffff;fill-opacity:1;fill-rule:evenodd;stroke:none"
             d="m 0,0 -11.448,0.105 c -0.195,-1.266 0.382,-2.549 1.23,-2.836 1.033,-0.347 9.321,-0.207 9.913,0.44 C -0.021,-1.979 0.027,-0.965 0,0" /></g><g
           transform="translate(251.2773,341.9146)"
           id="g242"><path
             id="path244"
             style="fill:#f1d3c8;fill-opacity:1;fill-rule:evenodd;stroke:none"
             d="m 0,0 c 0.534,-1.476 1.468,-4.147 1.387,-4.585 -0.111,-0.609 -3.283,-1.02 -4.116,-0.17 -0.556,0.568 0.132,2.9 0.734,4.464 C -1.175,1.841 -0.719,1.987 0,0" /></g><g
           transform="translate(266.7441,343.6133)"
           id="g246"><path
             id="path248"
             style="fill:#30295e;fill-opacity:1;fill-rule:evenodd;stroke:none"
             d="M 0,0 C -0.003,0.667 -0.266,1.302 -0.74,1.773 -1.217,2.244 -1.853,2.504 -2.521,2.502 -3.188,2.499 -3.823,2.233 -4.293,1.759 -4.764,1.285 -5.026,0.649 -5.021,-0.02 c 0,-0.556 -0.447,-1.008 -1.004,-1.01 -0.555,-10e-4 -1.007,0.447 -1.01,1.002 -0.005,1.203 0.466,2.351 1.313,3.204 0.846,0.854 1.992,1.333 3.194,1.338 1.203,0.005 2.35,-0.465 3.204,-1.312 C 1.115,2.766 1.454,2.252 1.683,1.692 1.812,1.663 2.067,1.642 2.295,1.815 2.422,1.912 2.602,1.887 2.699,1.76 2.795,1.635 2.77,1.453 2.644,1.357 2.385,1.16 2.106,1.104 1.876,1.103 L 1.881,1.082 C 2.124,1.029 2.436,1.022 2.758,1.176 2.899,1.244 3.073,1.183 3.141,1.039 3.209,0.896 3.148,0.725 3.005,0.656 2.644,0.484 2.29,0.455 1.986,0.488 V 0.482 C 2.239,0.381 2.542,0.319 2.889,0.363 3.046,0.381 3.188,0.269 3.209,0.111 3.228,-0.047 3.116,-0.191 2.958,-0.21 2.604,-0.254 2.282,-0.215 2.004,-0.132 1.938,-0.622 1.519,-1 1.012,-1.003 0.454,-1.005 0.003,-0.556 0,0" /></g><g
           transform="translate(234.6797,343.6133)"
           id="g250"><path
             id="path252"
             style="fill:#30295e;fill-opacity:1;fill-rule:evenodd;stroke:none"
             d="M 0,0 C 0.003,0.667 0.269,1.302 0.742,1.773 1.217,2.244 1.854,2.504 2.521,2.502 3.189,2.499 3.824,2.233 4.295,1.759 4.765,1.285 5.025,0.649 5.023,-0.02 5.022,-0.576 5.471,-1.028 6.025,-1.03 6.58,-1.031 7.034,-0.583 7.035,-0.028 7.041,1.175 6.57,2.323 5.723,3.176 4.876,4.03 3.732,4.509 2.529,4.514 1.327,4.519 0.179,4.049 -0.676,3.202 -1.114,2.766 -1.453,2.252 -1.681,1.692 -1.812,1.663 -2.066,1.642 -2.293,1.815 -2.42,1.912 -2.601,1.887 -2.697,1.76 -2.794,1.635 -2.77,1.453 -2.643,1.357 -2.385,1.16 -2.105,1.104 -1.873,1.103 L -1.879,1.082 C -2.123,1.029 -2.434,1.022 -2.757,1.176 -2.899,1.244 -3.071,1.183 -3.141,1.039 -3.209,0.896 -3.147,0.725 -3.004,0.656 -2.643,0.484 -2.288,0.455 -1.984,0.488 L -1.985,0.482 C -2.239,0.381 -2.542,0.319 -2.887,0.363 -3.045,0.381 -3.188,0.269 -3.207,0.111 c -0.02,-0.158 0.094,-0.302 0.25,-0.321 0.354,-0.044 0.674,-0.005 0.953,0.078 C -1.937,-0.622 -1.519,-1 -1.011,-1.003 -0.455,-1.005 -0.002,-0.556 0,0" /></g><g
           transform="translate(221.3037,352.6128)"
           id="g254"><path
             id="path256"
             style="fill:#30295e;fill-opacity:1;fill-rule:evenodd;stroke:none"
             d="m 0,0 -0.094,-4.672 c 0,0 5.707,2.107 4.77,8.905 0,0 15.587,2.815 20.274,17.347 0,0 10.08,-3.517 17.346,-0.704 0,0 3.398,-12.421 10.9,-14.649 0,0 0.293,-9.26 4.015,-9.962 v 4.219 l 3.017,6.212 -2.461,21.213 c 0,0 -11.254,16.407 -13.127,17.345 -1.876,0.938 -18.752,3.282 -18.752,3.282 L 5.963,37.285 c 0,0 -7.031,-9.375 -7.031,-11.486 C -1.068,23.69 -7.827,10.252 0,0" /></g><g
           transform="translate(335.9404,217.3984)"
           id="g258"><path
             id="path260"
             style="fill:none;stroke:#d6725f;stroke-width:0.70899999;stroke-linecap:round;stroke-linejoin:round;stroke-miterlimit:2.61299992;stroke-dasharray:none;stroke-opacity:1"
             d="m 0,0 -4.638,-1.276 m -167.368,1.315 5.383,-1.695" /></g><g
           transform="translate(231.4502,266.6416)"
           id="g262"><path
             id="path264"
             style="fill:#ffffff;fill-opacity:1;fill-rule:evenodd;stroke:none"
             d="m 0,0 v 0 c 4.221,4.347 11.23,4.449 15.576,0.227 l 3.464,-3.364 3.364,3.463 C 26.627,4.672 33.635,4.775 37.98,0.554 49.216,-10.359 32.931,-23.522 19.448,-31.16 6.964,-25.649 -10.927,-11.249 0,0" /></g><g
           transform="translate(168.3379,309.6226)"
           id="g266"><path
             id="path268"
             style="fill:#8fcada;fill-opacity:1;fill-rule:evenodd;stroke:none"
             d="m 0,0 7.039,-4.642 -2.31,-3.503 c 2.835,-1.872 3.013,-6.652 1.142,-9.489 l -2.317,-3.515 -3.2,-4.852 -0.025,-0.039 -0.416,-0.631 -0.028,0.018 c -0.441,-0.556 -0.945,-1.03 -1.553,-1.341 -1.023,-0.524 -1.679,-0.606 -2.023,-1.049 -0.245,-0.315 -0.348,-0.803 -0.248,-1.807 0.11,-1.099 -0.462,-2.362 -1.112,-3.348 l -0.638,-0.967 -13.925,-21.117 -0.639,-0.969 c -1.872,-2.837 -5.724,-3.628 -8.562,-1.756 l -7.035,4.637 c -2.838,1.872 -3.629,5.725 -1.756,8.564 l 0.638,0.967 13.924,21.116 0.639,0.97 c 0.587,0.889 1.369,1.578 2.253,2.045 1.258,0.668 1.589,0.835 1.787,1.226 0.165,0.327 0.282,0.793 0.366,1.978 0.054,0.766 0.251,1.529 0.602,2.249 l -0.044,0.028 0.441,0.67 3.2,4.851 2.318,3.516 c 1.87,2.836 6.334,4.556 9.172,2.687 z" /></g><g
           transform="translate(168.3379,309.6226)"
           id="g270"><path
             id="path272"
             style="fill:#b0daed;fill-opacity:1;fill-rule:evenodd;stroke:none"
             d="M 0,0 2.64,-1.741 0.33,-5.244 c 2.836,-1.872 3.013,-6.652 1.143,-9.489 l -2.318,-3.516 -3.199,-4.851 -0.026,-0.04 -0.416,-0.631 -0.028,0.019 c -0.441,-0.557 -0.945,-1.03 -1.553,-1.341 -1.024,-0.525 -1.679,-0.606 -2.023,-1.05 -0.244,-0.315 -0.348,-0.803 -0.248,-1.806 0.11,-1.099 -0.462,-2.362 -1.112,-3.347 l -0.638,-0.969 -13.925,-21.116 -0.638,-0.969 c -1.872,-2.838 -5.725,-3.628 -8.563,-1.758 l -2.636,1.738 c -2.838,1.872 -3.629,5.725 -1.756,8.564 l 0.638,0.967 13.924,21.116 0.639,0.97 c 0.587,0.889 1.369,1.578 2.253,2.045 1.258,0.668 1.589,0.835 1.787,1.226 0.165,0.327 0.282,0.793 0.366,1.978 0.054,0.766 0.251,1.529 0.602,2.249 l -0.044,0.028 0.441,0.67 3.2,4.851 2.318,3.516 c 1.87,2.836 6.334,4.556 9.172,2.687 z" /></g><g
           transform="translate(174.4185,311.1855)"
           id="g274"><path
             id="path276"
             style="fill:#387286;fill-opacity:1;fill-rule:evenodd;stroke:none"
             d="M 0,0 -2.979,1.964 C -3.86,2.545 -5.092,2.247 -5.716,1.301 l -2.226,-3.377 4.581,-3.022 4.58,-3.021 2.228,3.378 c 0.624,0.946 0.413,2.196 -0.469,2.777 z" /></g><g
           transform="translate(156.7007,303.1973)"
           id="g278"><path
             id="path280"
             style="fill:#5293aa;fill-opacity:1;fill-rule:evenodd;stroke:none"
             d="M 0,0 17.354,-11.443 12.687,-18.521 -4.667,-7.078 Z" /></g><g
           transform="translate(75.7563,298.4995)"
           id="g282"><path
             id="path284"
             style="fill:#255262;fill-opacity:1;fill-rule:evenodd;stroke:none"
             d="M 0,0 32.271,12.446 34.229,7.368 1.958,-5.079 Z" /></g><g
           transform="translate(75.7563,298.4995)"
           id="g286"><path
             id="path288"
             style="fill:#387286;fill-opacity:1;fill-rule:evenodd;stroke:none"
             d="M 0,0 32.271,12.446 33.116,10.252 0.845,-2.193 Z" /></g><g
           transform="translate(101.6177,323.9038)"
           id="g290"><path
             id="path292"
             style="fill:#387286;fill-opacity:1;fill-rule:evenodd;stroke:none"
             d="m 0,0 v 0 c -1.893,-0.73 -2.843,-2.875 -2.113,-4.767 l 9.666,-25.064 c 0.73,-1.891 2.874,-2.842 4.766,-2.113 l 10e-4,10e-4 c 1.726,0.666 2.668,2.508 2.266,4.262 1.835,0.762 2.745,2.869 2.027,4.732 l -0.145,0.377 c 1.743,0.806 2.591,2.856 1.89,4.672 l -4.453,11.548 c -0.701,1.817 -2.706,2.766 -4.539,2.193 L 9.221,-3.782 C 8.502,-1.92 6.413,-0.969 4.542,-1.637 3.662,-0.067 1.726,0.666 0,0 m -27.515,-39.535 c -1.834,-0.573 -3.838,0.376 -4.539,2.192 l -4.454,11.549 c -0.7,1.816 0.149,3.865 1.892,4.672 l -0.146,0.376 c -0.718,1.863 0.192,3.971 2.026,4.733 -0.401,1.753 0.542,3.596 2.267,4.262 h 0.001 c 1.892,0.729 4.036,-0.221 4.766,-2.113 l 9.666,-25.064 c 0.73,-1.891 -0.22,-4.037 -2.113,-4.766 v 0 c -1.726,-0.666 -3.662,0.067 -4.542,1.636 -1.871,-0.667 -3.96,0.285 -4.679,2.145 z" /></g><g
           transform="translate(107.0273,299.6304)"
           id="g294"><path
             id="path296"
             style="fill:#255262;fill-opacity:1;fill-rule:evenodd;stroke:none"
             d="m 0,0 2.143,-5.557 c 0.163,-0.421 0.395,-0.795 0.678,-1.113 0.992,-1.119 2.617,-1.568 4.089,-0.999 1.726,0.665 2.668,2.507 2.267,4.262 1.834,0.761 2.744,2.868 2.026,4.732 L 11.058,1.702 C 12.553,2.393 13.39,4 13.155,5.589 13.117,5.852 13.048,6.115 12.949,6.374 l -2.143,5.557 C 11.506,10.114 10.658,8.065 8.915,7.258 L 9.06,6.882 C 9.778,5.019 8.867,2.911 7.034,2.149 7.435,0.396 6.493,-1.447 4.767,-2.113 2.874,-2.843 0.729,-1.892 0,0" /></g><g
           transform="translate(85.582,284.9761)"
           id="g298"><path
             id="path300"
             style="fill:#255262;fill-opacity:1;fill-rule:evenodd;stroke:none"
             d="M 0,0 -2.143,5.557 C -1.414,3.666 -2.364,1.521 -4.257,0.791 -5.982,0.125 -7.918,0.858 -8.798,2.427 c -1.871,-0.667 -3.961,0.284 -4.68,2.146 l -0.145,0.376 c -1.833,-0.572 -3.838,0.376 -4.538,2.193 l 2.142,-5.558 c 0.702,-1.815 2.706,-2.765 4.54,-2.191 l 0.145,-0.378 c 0.718,-1.861 2.808,-2.812 4.679,-2.145 0.88,-1.569 2.816,-2.302 4.542,-1.636 C -0.221,-4.037 0.73,-1.892 0,0" /></g><g
           transform="translate(66.9829,302.7739)"
           id="g302"><path
             id="path304"
             style="fill:#255262;fill-opacity:1;fill-rule:evenodd;stroke:none"
             d="m 0,0 c -1.731,-0.813 -2.571,-2.854 -1.873,-4.665 l 2.311,-5.991 c 0.698,-1.81 2.691,-2.758 4.52,-2.199 z" /></g><g
           transform="translate(110.6841,320.4673)"
           id="g306"><path
             id="path308"
             style="fill:#255262;fill-opacity:1;fill-rule:evenodd;stroke:none"
             d="m 0,0 5.522,-14.317 c -0.033,0.121 -0.072,0.242 -0.119,0.362 l -0.145,0.376 c 1.743,0.807 2.592,2.856 1.891,4.673 l -2.311,5.991 c -0.7,1.817 -2.705,2.765 -4.539,2.193 L 0.154,-0.346 C 0.108,-0.227 0.057,-0.111 0,0" /></g><g
           transform="translate(389.3389,334.2456)"
           id="g310"><path
             id="path312"
             style="fill:#387286;fill-opacity:1;fill-rule:evenodd;stroke:none"
             d="M 0,0 C 0.267,2.433 1.37,7.049 2.923,7.363 3.829,7.547 4.997,7.17 4.034,5.036 3.097,2.955 1.568,-0.453 1.465,-5.836 1.373,-10.667 -0.306,-2.782 0,0" /></g><g
           transform="translate(389.9307,332.373)"
           id="g314"><path
             id="path316"
             style="fill:#387286;fill-opacity:1;fill-rule:evenodd;stroke:none"
             d="m 0,0 c -0.302,3.98 -3.679,7.056 -8.563,6.996 -4.885,-0.06 -6.271,-0.663 -6.271,-0.663 0,0 4.1,-9.89 14.834,-6.333" /></g><g
           transform="translate(389.9307,332.373)"
           id="g318"><path
             id="path320"
             style="fill:#387286;fill-opacity:1;fill-rule:evenodd;stroke:none"
             d="m 0,0 c 0.302,3.98 3.678,7.056 8.563,6.996 4.885,-0.06 6.271,-0.663 6.271,-0.663 0,0 -4.1,-9.89 -14.834,-6.333" /></g><g
           transform="translate(385.9717,303.6694)"
           id="g322"><path
             id="path324"
             style="fill:#cc342a;fill-opacity:1;fill-rule:evenodd;stroke:none"
             d="M 0,0 C 2.826,-0.25 3.567,1.282 4.528,1.282 5.51,1.282 6.719,-0.25 8.938,0 22.279,1.502 32.947,29.842 2.891,29.063 -22.537,28.403 -13.896,1.231 0,0" /></g><g
           transform="translate(381.1709,330.0112)"
           id="g326"><path
             id="path328"
             style="fill:#d1544b;fill-opacity:1;fill-rule:evenodd;stroke:none"
             d="m 0,0 c -4.629,-2.3 -7.345,-6.255 -6.063,-8.833 1.28,-2.578 6.072,-2.803 10.702,-0.503 4.63,2.301 7.344,6.255 6.063,8.834 C 9.422,2.075 4.63,2.299 0,0" /></g><g
           transform="translate(318.999,305.8232)"
           id="g330"><path
             id="path332"
             style="fill:#cc342a;fill-opacity:1;fill-rule:evenodd;stroke:none"
             d="m 0,0 v 0 c 3.299,4.823 9.942,6.07 14.764,2.772 l 3.845,-2.628 2.628,3.844 c 3.299,4.823 9.942,6.07 14.764,2.772 C 48.469,-1.765 35.154,-16.946 23.596,-26.416 10.829,-23.229 -8.536,-12.481 0,0" /></g><g
           transform="translate(320.9209,303.6558)"
           id="g334"><path
             id="path336"
             style="fill:#d1544b;fill-opacity:1;fill-rule:evenodd;stroke:none"
             d="m 0,0 c -2.116,-3.191 -2.092,-6.569 0.055,-7.543 2.146,-0.976 5.603,0.82 7.719,4.011 C 9.892,-0.341 9.866,3.035 7.719,4.011 5.572,4.986 2.116,3.19 0,0" /></g><g
           transform="translate(341.3467,308.437)"
           id="g338"><path
             id="path340"
             style="fill:#d1544b;fill-opacity:1;fill-rule:evenodd;stroke:none"
             d="m 0,0 c -1.618,-2.095 -1.768,-4.424 -0.336,-5.204 1.432,-0.778 3.904,0.288 5.521,2.383 1.618,2.095 1.769,4.425 0.337,5.204 C 4.091,3.162 1.617,2.096 0,0" /></g></g></g></g></svg>